/* XPM */
static char *ff7d0dcfe023496ac7bdb4e62d1f6226oD2ZoCw5Ued8fMF1[] = {
/* columns rows colors chars-per-pixel */
"128 128 11 1 ",
"  c #000000",
". c #080808",
"X c #0B0B0B",
"o c #130B09",
"O c #100D0D",
"+ c #101010",
"@ c #161113",
"# c #16191A",
"$ c #1C1F21",
"% c #22282B",
"& c #293338",
/* pixels */
"                                                                                                                                ",
"                                                                                                                                ",
"$$$$$$$$$$$$$$$$$$$$$$$$$$##$$##$$$$$$$$$$$$$$$$$$$$##$$######..  $$$$$$$$$$$$$$$$$$$$$$$$$$$$$$$$$$$$$$$$$$$$$$$$$$$$##$$##$$$$",
"$$$$$$$$$$$$$$$$$$$$$$$$$$##$$##$$$$$$$$$$$$$$$$$$$$##$$######..  $$$$$$$$$$$$$$$$$$$$$$$$$$$$$$$$$$$$$$$$$$$$$$$$$$$$##$$##$$$$",
"##############################################################..  $$############################################################",
"##############################################################..  $$############################################################",
"##############################################################..  $$############################################################",
"##############################################################..  $$############################################################",
"##################################################@@&&$$######..  $$##@@&&$$####################################################",
"##################################################@@&&$$######..  $$##@@&&$$####################################################",
"##################################################@@$$$$######..  $$##@@$$$$####################################################",
"##################################################@@$$$$######..  $$##@@$$$$####################################################",
"##################################################@@@@########..  $$##@@@@######################################################",
"##################################################@@@@########..  $$##@@@@######################################################",
"##############################################################..  $$############################################################",
"##############################################################..  $$############################################################",
"$$$$$$$$$$$$$$$$$$$$$$$$$$$$$$$$$$$$$$$$$$$$$$$$$$$$$$$$$$$$$$OO..&&$$$$$$$$$$$$$$$$$$$$$$$$$$$$$$$$$$$$$$$$$$$$$$$$$$$$$$$$$$$$",
"$$$$$$$$$$$$$$$$$$$$$$$$$$$$$$$$$$$$$$$$$$$$$$$$$$$$$$$$$$$$$$OO..&&$$$$$$$$$$$$$$$$$$$$$$$$$$$$$$$$$$$$$$$$$$$$$$$$$$$$$$$$$$$$",
"##############################################################..  $$############################################################",
"##############################################################..  $$############################################################",
"$$$$$$$$$$$$$$$$$$$$$$$$$$$$$$$$$$$$$$$$$$$$$$$$$$$$$$$$$$$$$$OO..&&$$$$$$$$$$$$$$$$$$$$$$$$$$$$$$$$$$$$$$$$$$$$$$$$$$$$$$$$$$$$",
"$$$$$$$$$$$$$$$$$$$$$$$$$$$$$$$$$$$$$$$$$$$$$$$$$$$$$$$$$$$$$$OO..&&$$$$$$$$$$$$$$$$$$$$$$$$$$$$$$$$$$$$$$$$$$$$$$$$$$$$$$$$$$$$",
"$$$$$$$$$$$$$$$$$$$$$$$$$$$$$$$$$$$$$$$$$$$$$$$$$$$$$$$$$$$$$$..  &&$$$$$$$$$$$$$$$$$$$$$$$$$$$$$$$$$$$$$$$$$$$$$$$$$$$$$$$$$$$$",
"$$$$$$$$$$$$$$$$$$$$$$$$$$$$$$$$$$$$$$$$$$$$$$$$$$$$$$$$$$$$$$..  &&$$$$$$$$$$$$$$$$$$$$$$$$$$$$$$$$$$$$$$$$$$$$$$$$$$$$$$$$$$$$",
"$$$$$$$$$$$$$$$$$$$$$$$$$$$$$$$$$$$$$$$$$$$$$$$$$$$$$$$$$$$$$$OO..&&$$$$$$$$$$$$$$$$$$$$$$$$$$$$$$$$$$$$$$$$$$$$$$$$$$$$$$$$$$$$",
"$$$$$$$$$$$$$$$$$$$$$$$$$$$$$$$$$$$$$$$$$$$$$$$$$$$$$$$$$$$$$$OO..&&$$$$$$$$$$$$$$$$$$$$$$$$$$$$$$$$$$$$$$$$$$$$$$$$$$$$$$$$$$$$",
"$$$$$$$$$$$$$$$$$$$$$$$$$$$$$$$$$$$$$$$$$$$$$$$$$$$$$$$$$$$$$$OO..&&$$$$$$$$$$$$$$$$$$$$$$$$$$$$$$$$$$$$$$$$$$$$$$$$$$$$$$$$$$$$",
"$$$$$$$$$$$$$$$$$$$$$$$$$$$$$$$$$$$$$$$$$$$$$$$$$$$$$$$$$$$$$$OO..&&$$$$$$$$$$$$$$$$$$$$$$$$$$$$$$$$$$$$$$$$$$$$$$$$$$$$$$$$$$$$",
"$$$$$$$$$$$$$$$$$$$$$$$$$$$$$$$$$$$$$$$$$$$$$$$$$$$$$$$$$$$$$$OO..&&$$$$$$$$$$$$$$$$$$$$$$$$$$$$$$$$$$$$$$$$$$$$$$$$$$$$$$$$$$$$",
"$$$$$$$$$$$$$$$$$$$$$$$$$$$$$$$$$$$$$$$$$$$$$$$$$$$$$$$$$$$$$$OO..&&$$$$$$$$$$$$$$$$$$$$$$$$$$$$$$$$$$$$$$$$$$$$$$$$$$$$$$$$$$$$",
"$$$$$$$$$$$$$$$$$$$$$$$$$$$$$$$$$$$$$$$$$$$$$$$$$$$$$$$$$$$$$$OO..&&$$$$$$$$$$$$$$$$$$$$$$$$$$$$$$$$$$$$$$$$$$$$$$$$$$$$$$$$$$$$",
"$$$$$$$$$$$$$$$$$$$$$$$$$$$$$$$$$$$$$$$$$$$$$$$$$$$$$$$$$$$$$$OO..&&$$$$$$$$$$$$$$$$$$$$$$$$$$$$$$$$$$$$$$$$$$$$$$$$$$$$$$$$$$$$",
"$$$$$$$$$$$$$$$$$$$$$$$$$$$$$$$$$$$$$$$$$$$$$$$$$$$$$$$$$$$$$$OO..&&$$$$$$$$$$$$$$$$$$$$$$$$$$$$$$$$$$$$$$$$$$$$$$$$$$$$$$$$$$$$",
"$$$$$$$$$$$$$$$$$$$$$$$$$$$$$$$$$$$$$$$$$$$$$$$$$$$$$$$$$$$$$$OO..&&$$$$$$$$$$$$$$$$$$$$$$$$$$$$$$$$$$$$$$$$$$$$$$$$$$$$$$$$$$$$",
"$$$$$$$$$$$$$$$$$$$$$$$$$$$$$$$$$$$$$$$$$$$$$$$$$$$$$$$$$$$$$$....$$$$$$$$$$$$$$$$$$$$$$$$$$$$$$$$$$$$$$$$$$$$$$$$$$$$$$$$$$$$$$",
"$$$$$$$$$$$$$$$$$$$$$$$$$$$$$$$$$$$$$$$$$$$$$$$$$$$$$$$$$$$$$$....$$$$$$$$$$$$$$$$$$$$$$$$$$$$$$$$$$$$$$$$$$$$$$$$$$$$$$$$$$$$$$",
"$$$$$$$$$$$$$$$$$$$$$$$$$$$$$$$$$$$$$$$$$$$$$$$$$$$$$$$$$$$$$$OO..&&$$$$$$$$$$$$$$$$$$$$$$$$$$$$$$$$$$$$$$$$$$$$$$$$$$$$$$$$$$$$",
"$$$$$$$$$$$$$$$$$$$$$$$$$$$$$$$$$$$$$$$$$$$$$$$$$$$$$$$$$$$$$$OO..&&$$$$$$$$$$$$$$$$$$$$$$$$$$$$$$$$$$$$$$$$$$$$$$$$$$$$$$$$$$$$",
"$$$$$$$$$$$$$$$$$$$$$$$$$$$$$$$$$$$$$$$$$$$$$$$$$$$$$$$$$$$$$$....$$$$$$$$$$$$$$$$$$$$$$$$$$$$$$$$$$$$$$$$$$$$$$$$$$$$$$$$$$$$$$",
"$$$$$$$$$$$$$$$$$$$$$$$$$$$$$$$$$$$$$$$$$$$$$$$$$$$$$$$$$$$$$$....$$$$$$$$$$$$$$$$$$$$$$$$$$$$$$$$$$$$$$$$$$$$$$$$$$$$$$$$$$$$$$",
"$$$$$$$$$$$$$$$$$$$$$$$$$$$$$$$$$$$$$$$$$$$$$$$$$$$$$$$$$$$$$$OO..&&$$$$$$$$$$$$$$$$$$$$$$$$$$$$$$$$$$$$$$$$$$$$$$$$$$$$$$$$$$$$",
"$$$$$$$$$$$$$$$$$$$$$$$$$$$$$$$$$$$$$$$$$$$$$$$$$$$$$$$$$$$$$$OO..&&$$$$$$$$$$$$$$$$$$$$$$$$$$$$$$$$$$$$$$$$$$$$$$$$$$$$$$$$$$$$",
"$$$$$$$$$$$$$$$$$$$$$$$$$$$$$$$$$$$$$$$$$$$$$$$$$$$$$$$$$$$$$$....$$$$$$$$$$$$$$$$$$$$$$$$$$$$$$$$$$$$$$$$$$$$$$$$$$$$$$$$$$$$$$",
"$$$$$$$$$$$$$$$$$$$$$$$$$$$$$$$$$$$$$$$$$$$$$$$$$$$$$$$$$$$$$$....$$$$$$$$$$$$$$$$$$$$$$$$$$$$$$$$$$$$$$$$$$$$$$$$$$$$$$$$$$$$$$",
"$$$$$$$$$$$$$$$$$$$$$$$$$$$$$$$$$$$$$$$$$$$$$$$$$$$$$$$$$$$$$$OO..$$$$$$$$$$$$$$$$$$$$$$$$$$$$$$$$$$$$$$$$$$$$$$$$$$$$$$$$$$$$$$",
"$$$$$$$$$$$$$$$$$$$$$$$$$$$$$$$$$$$$$$$$$$$$$$$$$$$$$$$$$$$$$$OO..$$$$$$$$$$$$$$$$$$$$$$$$$$$$$$$$$$$$$$$$$$$$$$$$$$$$$$$$$$$$$$",
"$$$$$$$$$$$$$$$$$$$$$$$$$$$$$$$$$$$$$$$$$$$$$$$$$$$$$$$$$$$$$$....$$$$$$$$$$$$$$$$$$$$$$$$$$$$$$$$$$$$$$$$$$$$$$$$$$$$$$$$$$$$$$",
"$$$$$$$$$$$$$$$$$$$$$$$$$$$$$$$$$$$$$$$$$$$$$$$$$$$$$$$$$$$$$$....$$$$$$$$$$$$$$$$$$$$$$$$$$$$$$$$$$$$$$$$$$$$$$$$$$$$$$$$$$$$$$",
"$$$$$$$$$$$$$$$$$$$$$$$$$$$$$$$$$$$$$$$$$$$$$$$$$$$$$$$$$$$$$$....$$$$$$$$$$$$$$$$$$$$$$$$$$$$$$$$$$$$$$$$$$$$$$$$$$$$$$$$$$$$$$",
"$$$$$$$$$$$$$$$$$$$$$$$$$$$$$$$$$$$$$$$$$$$$$$$$$$$$$$$$$$$$$$....$$$$$$$$$$$$$$$$$$$$$$$$$$$$$$$$$$$$$$$$$$$$$$$$$$$$$$$$$$$$$$",
"$$$$$$$$$$$$$$$$$$$$$$$$$$$$$$$$$$$$$$$$$$$$$$$$$$$$$$$$$$$$$$....$$$$$$$$$$$$$$$$$$$$$$$$$$$$$$$$$$$$$$$$$$$$$$$$$$$$$$$$$$$$$$",
"$$$$$$$$$$$$$$$$$$$$$$$$$$$$$$$$$$$$$$$$$$$$$$$$$$$$$$$$$$$$$$....$$$$$$$$$$$$$$$$$$$$$$$$$$$$$$$$$$$$$$$$$$$$$$$$$$$$$$$$$$$$$$",
"$$$$$$$$$$$$$$$$$$$$$$$$$$$$$$$$$$$$$$$$$$$$$$$$$$$$$$$$$$$$$$....$$$$$$$$$$$$$$$$$$$$$$$$$$$$$$$$$$$$$$$$$$$$$$$$$$$$$$$$$$$$$$",
"$$$$$$$$$$$$$$$$$$$$$$$$$$$$$$$$$$$$$$$$$$$$$$$$$$$$$$$$$$$$$$....$$$$$$$$$$$$$$$$$$$$$$$$$$$$$$$$$$$$$$$$$$$$$$$$$$$$$$$$$$$$$$",
"$$$$$$$$$$$$$$$$$$$$$$$$$$$$$$$$$$$$$$$$$$$$$$$$$$$$$$$$$$$$$$....$$$$$$$$$$$$$$$$$$$$$$$$$$$$$$$$$$$$$$$$$$$$$$$$$$$$$$$$$$$$$$",
"$$$$$$$$$$$$$$$$$$$$$$$$$$$$$$$$$$$$$$$$$$$$$$$$$$$$$$$$$$$$$$....$$$$$$$$$$$$$$$$$$$$$$$$$$$$$$$$$$$$$$$$$$$$$$$$$$$$$$$$$$$$$$",
"$$$$$$$$$$$$$$$$$$$$$$$$$$$$$$$$$$$$$$$$$$$$$$$$$$$$$$$$$$$$$$....$$$$$$$$$$$$$$$$$$$$$$$$$$$$$$$$$$$$$$$$$$$$$$$$$$$$$$$$$$$$$$",
"$$$$$$$$$$$$$$$$$$$$$$$$$$$$$$$$$$$$$$$$$$$$$$$$$$$$$$$$$$$$$$....$$$$$$$$$$$$$$$$$$$$$$$$$$$$$$$$$$$$$$$$$$$$$$$$$$$$$$$$$$$$$$",
"$$$$$$$$$$$$$$$$$$$$$$$$$$$$$$$$$$$$$$$$$$$$$$$$$$$$$$$$$$$$$$....$$$$$$$$$$$$$$$$$$$$$$$$$$$$$$$$$$$$$$$$$$$$$$$$$$$$$$$$$$$$$$",
"$$$$$$$$$$$$$$$$$$$$$$$$$$$$$$$$$$$$$$$$$$$$$$$$$$$$$$$$$$$$$$....$$$$$$$$$$$$$$$$$$$$$$$$$$$$$$$$$$$$$$$$$$$$$$$$$$$$$$$$$$$$$$",
"$$$$$$$$$$$$$$$$$$$$$$$$$$$$$$$$$$$$$$$$$$$$$$$$$$$$$$$$$$$$$$....$$$$$$$$$$$$$$$$$$$$$$$$$$$$$$$$$$$$$$$$$$$$$$$$$$$$$$$$$$$$$$",
"$$$$$$$$$$$$$$$$$$$$$$$$$$$$$$$$$$$$$$$$$$$$$$$$$$$$$$$$$$$$$$....$$$$$$$$$$$$$$$$$$$$$$$$$$$$$$$$$$$$$$$$$$$$$$$$$$$$$$$$$$$$$$",
"$$$$$$$$$$$$$$$$$$$$$$$$$$$$$$$$$$$$$$$$$$$$$$$$$$$$$$$$$$$$$$..OO$$$$$$$$$$$$$$$$$$$$$$$$$$$$$$$$$$$$$$$$$$$$$$$$$$$$$$$$$$$$$$",
"$$$$$$$$$$$$$$$$$$$$$$$$$$$$$$$$$$$$$$$$$$$$$$$$$$$$$$$$$$$$$$..OO$$$$$$$$$$$$$$$$$$$$$$$$$$$$$$$$$$$$$$$$$$$$$$$$$$$$$$$$$$$$$$",
"$$$$$$$$$$$$$$$$$$$$$$$$$$$$$$$$$$$$$$$$$$$$$$$$$$$$$$$$$$$$$$OO..$$$$$$$$$$$$$$$$$$$$$$$$$$$$$$$$$$$$$$$$$$$$$$$$$$$$$$$$$$$$$$",
"$$$$$$$$$$$$$$$$$$$$$$$$$$$$$$$$$$$$$$$$$$$$$$$$$$$$$$$$$$$$$$OO..$$$$$$$$$$$$$$$$$$$$$$$$$$$$$$$$$$$$$$$$$$$$$$$$$$$$$$$$$$$$$$",
"$$$$$$$$$$$$$$$$$$$$$$$$$$$$$$$$$$$$$$$$$$$$$$$$$$@@&&##$$$$$$..OO$$$$@@&&##$$$$$$$$$$$$$$$$$$$$$$$$$$$$$$$$$$$$$$$$$$$$$$$$$$$$",
"$$$$$$$$$$$$$$$$$$$$$$$$$$$$$$$$$$$$$$$$$$$$$$$$$$@@&&##$$$$$$..OO$$$$@@&&##$$$$$$$$$$$$$$$$$$$$$$$$$$$$$$$$$$$$$$$$$$$$$$$$$$$$",
"$$$$$$$$$$$$$$$$$$$$$$$$$$$$$$$$$$$$$$$$$$$$$$$$$$@@####$$$$$$OO..$$$$@@####$$$$$$$$$$$$$$$$$$$$$$$$$$$$$$$$$$$$$$$$$$$$$$$$$$$$",
"$$$$$$$$$$$$$$$$$$$$$$$$$$$$$$$$$$$$$$$$$$$$$$$$$$@@####$$$$$$OO..$$$$@@####$$$$$$$$$$$$$$$$$$$$$$$$$$$$$$$$$$$$$$$$$$$$$$$$$$$$",
"$$$$$$$$$$$$$$$$$$$$$$$$$$$$$$$$$$$$$$$$$$$$$$$$$$@@@@$$$$$$$$..OO$$$$@@@@$$$$$$$$$$$$$$$$$$$$$$$$$$$$$$$$$$$$$$$$$$$$$$$$$$$$$$",
"$$$$$$$$$$$$$$$$$$$$$$$$$$$$$$$$$$$$$$$$$$$$$$$$$$@@@@$$$$$$$$..OO$$$$@@@@$$$$$$$$$$$$$$$$$$$$$$$$$$$$$$$$$$$$$$$$$$$$$$$$$$$$$$",
"$$$$$$$$$$$$$$$$$$$$$$$$$$$$$$$$$$$$$$$$$$$$$$$$$$$$$$$$$$$$$$OOOO$$$$$$$$$$$$$$$$$$$$$$$$$$$$$$$$$$$$$$$$$$$$$$$$$$$$$$$$$$$$$$",
"$$$$$$$$$$$$$$$$$$$$$$$$$$$$$$$$$$$$$$$$$$$$$$$$$$$$$$$$$$$$$$OOOO$$$$$$$$$$$$$$$$$$$$$$$$$$$$$$$$$$$$$$$$$$$$$$$$$$$$$$$$$$$$$$",
"&&&&&&&&&&&&&&&&&&&&&&&&&&&&&&&&&&&&&&&&&&&&&&&&&&&&&&&&$$&&$$OOOO$$&&$$&&&&&&&&&&&&&&$$&&$$&&$$&&&&&&$$&&$$&&$$&&$$&&&&&&&&&&&&",
"&&&&&&&&&&&&&&&&&&&&&&&&&&&&&&&&&&&&&&&&&&&&&&&&&&&&&&&&$$&&$$OOOO$$&&$$&&&&&&&&&&&&&&$$&&$$&&$$&&&&&&$$&&$$&&$$&&$$&&&&&&&&&&&&",
"                                                                                                                                ",
"                                                                                                                                ",
"                                                                                                                                ",
"                                                                                                                                ",
"XX..  ..XX......XX..  ..XX......XX..  ..XX......XX..  ..XX..........  ..XX......XX..  ..XX......XX..  ..XX......XX..  ..XX......",
"XX..  ..XX......XX..  ..XX......XX..  ..XX......XX..  ..XX......XX..  ..XX......XX..  ..XX......XX..  ..XX......XX..  ..XX......",
"++..  ++++XX..++++..  ++++XX..++++..  ++++XX..++++..  ++++XX..++++..  ++++XX..++++..  ++++XX..++++..  ++++XX..++++..  ++++XX..++",
"++..  ++++XX..++++..  ++++XX..++++..  ++++XX..++++..  ++++XX..++++..  ++++XX..++++..  ++++XX..++++..  ++++XX..++++..  ++++XX..++",
"++..  ++++XXXX++++..  ++++XXXX++++..  ++++XXXX++++..  ++++XXXX++++..  ++++XXXX++++..  ++++XXXX++++..  ++++XXXX++++..  ++++XXXX++",
"++..  ++++XXXX++++..  ++++XXXX++++..  ++++XXXX++++..  ++++XXXX++++..  ++++XXXX++++..  ++++XXXX++++..  ++++XXXX++++..  ++++XXXX++",
"++..  ++++XXXX++++..  ++++XXXX++++..  ++++XXXX++++..  ++++XXXX++++..  ++++XXXX++++..  ++++XXXX++++..  ++++XXXX++++..  ++++XXXX++",
"++..  ++++XXXX++++..  ++++XXXX++++..  ++++XXXX++++..  ++++XXXX++++..  ++++XXXX++++..  ++++XXXX++++..  ++++XXXX++++..  ++++XXXX++",
"++XX..++++XXXX++++XX..++++XXXX++++XX..++++XXXX++++XX..++++XXXX++++XX..++++XXXX++++XX..++++XXXX++++XX..++++XXXX++++XX..++++XXXX++",
"++XX..++++XXXX++++XX..++++XXXX++++XX..++++XXXX++++XX..++++XXXX++++XX..++++XXXX++++XX..++++XXXX++++XX..++++XXXX++++XX..++++XXXX++",
"++..  ++++XXXX++++..  ++++XXXX++++..  ++++XXXX++++..  ++++XXXX++++..  ++++XXXX++++..  ++++XXXX++++..  ++++XXXX++++..  ++++XXXX++",
"++..  ++++XXXX++++..  ++++XXXX++++..  ++++XXXX++++..  ++++XXXX++++..  ++++XXXX++++..  ++++XXXX++++..  ++++XXXX++++..  ++++XXXX++",
"++XX..++++XXXX++++XX..++++XXXX++++XX..++++XXXX++++XX..++++XXXX++++XX..++++XXXX++++XX..++++XXXX++++XX..++++XXXX++++XX..++++XXXX++",
"++XX..++++XXXX++++XX..++++XXXX++++XX..++++XXXX++++XX..++++XXXX++++XX..++++XXXX++++XX..++++XXXX++++XX..++++XXXX++++XX..++++XXXX++",
"++XX  ++++XXXX++++XX  ++++XXXX++++XX  ++++XXXX++++XX  ++++XXXX++++XX  ++++XXXX++++XX  ++++XXXX++++XX  ++++XXXX++++XX  ++++XXXX++",
"++XX  ++++XXXX++++XX  ++++XXXX++++XX  ++++XXXX++++XX  ++++XXXX++++XX  ++++XXXX++++XX  ++++XXXX++++XX  ++++XXXX++++XX  ++++XXXX++",
"++XX..++++XXXX++++XX..++++XXXX++++XX..++++XXXX++++XX..++++XXXX++++XX..++++XXXX++++XX..++++XXXX++++XX..++++XXXX++++XX..++++XXXX++",
"++XX..++++XXXX++++XX..++++XXXX++++XX..++++XXXX++++XX..++++XXXX++++XX..++++XXXX++++XX..++++XXXX++++XX..++++XXXX++++XX..++++XXXX++",
"++XX..++++XXXX++++XX..++++XXXX++++XX..++++XXXX++++XX..++++XXXX++++XX..++++XXXX++++XX..++++XXXX++++XX..++++XXXX++++XX..++++XXXX++",
"++XX..++++XXXX++++XX..++++XXXX++++XX..++++XXXX++++XX..++++XXXX++++XX..++++XXXX++++XX..++++XXXX++++XX..++++XXXX++++XX..++++XXXX++",
"++....++++XXXX++++....++XXXXXX++++....++++XXXX++++....++XXXXXX++++....++++XXXX++++....++XXXXXX++++....++++XXXX++++....++XXXXXX++",
"++....++++XXXX++++....++XXXXXX++++....++++XXXX++++....++XXXXXX++++....++++XXXX++++....++XXXXXX++++....++++XXXX++++....++XXXXXX++",
"++XX..++++XXXX++++XX..++++XXXX++++XX..++++XXXX++++XX..++++XXXX++++XX..++++XXXX++++XX..++++XXXX++++XX..++++XXXX++++XX..++++XXXX++",
"++XX..++++XXXX++++XX..++++XXXX++++XX..++++XXXX++++XX..++++XXXX++++XX..++++XXXX++++XX..++++XXXX++++XX..++++XXXX++++XX..++++XXXX++",
"XX..  ++XXXXXX++XX..  ++XXXXXX++XX..  ++XXXXXX++XX..  ++XXXXXX++XX..  ++XXXXXX++XX..  ++XXXXXX++XX..  ++XXXXXX++XX..  ++XXXXXX++",
"XX..  ++XXXXXX++XX..  ++XXXXXX++XX..  ++XXXXXX++XX..  ++XXXXXX++XX..  ++XXXXXX++XX..  ++XXXXXX++XX..  ++XXXXXX++XX..  ++XXXXXX++",
"++....XX++XXXX++++....XX++XXXX++++....XX++XXXX++++....XX++XXXX++++....XX++XXXX++++....XX++XXXX++++....XX++XXXX++++....XX++XXXX++",
"++....XX++XXXX++++....XX++XXXX++++....XX++XXXX++++....XX++XXXX++++....XX++XXXX++++....XX++XXXX++++....XX++XXXX++++....XX++XXXX++",
"XX..  ++XXXX..++XX..  ++XXXX..++XX..  ++XXXX..++XX..  ++XXXX..++XX..  ++XXXX..++XX..  ++XXXX..++XX..  ++XXXX..++XX..  ++XXXX..++",
"XX..  ++XXXX..++XX..  ++XXXX..++XX..  ++XXXX..++XX..  ++XXXX..++XX..  ++XXXX..++XX..  ++XXXX..++XX..  ++XXXX..++XX..  ++XXXX..++",
"XX    XXXX..  XXXX    XXXX..  XXXX    XXXX..  XXXX    XXXX..  XXXX    XXXX..  XXXX    XXXX..  XXXX    XXXX..  XXXX    XXXX..  XX",
"XX    XXXX..  XXXX    XXXX..  XXXX    XXXX..  XXXX    XXXX..  XXXX    XXXX..  XXXX    XXXX..  XXXX    XXXX..  XXXX    XXXX..  XX",
"&&&&&&&&&&&&&&&&&&%%&&&&&&&&%%&&%%&&%%&&%%&&%%%%%%%%%%%%&&%%&&%%&&%%&&&&&&&&&&&&&&&&&&&&&&&&&&&&&&&&&&&&&&&&&&&&&&%%&&&&&&&&%%&&",
"&&&&&&&&&&&&&&&&&&%%&&&&&&&&%%&&%%&&%%&&%%&&%%%%%%%%%%%%&&%%&&%%&&%%&&&&&&&&&&&&&&&&&&&&&&&&&&&&&&&&&&&&&&&&&&&&&&%%&&&&&&&&%%&&",
"$$$$$$$$$$$$$$$$##$$$$$$$$$$$$$$$$$$$$$$$$$$$$$$$$##$$$$$$$$$$$$$$$$$$$$$$$$$$##$$##$$$$$$$$$$$$##$$##$$$$$$$$$$##$$$$$$$$$$$$$$",
"$$$$$$$$$$$$$$$$##$$$$$$$$$$$$$$$$$$$$$$$$$$$$$$$$##$$$$$$$$$$$$$$$$$$$$$$$$$$##$$##$$$$$$$$$$$$##$$##$$$$$$$$$$##$$$$$$$$$$$$$$",
"$$##$$$$$$$$$$##$$$$$$$$$$$$$$$$$$$$$$$$$$$$$$####$$$$$$$$$$$$$$$$$$$$$$$$$$$$$$##$$$$$$$$$$$$$$$$##$$$$$$$$$$##$$$$$$$$$$$$$$$$",
"$$##$$$$$$$$$$##$$$$$$$$$$$$$$$$$$$$$$$$$$$$$$####$$$$$$$$$$$$$$$$$$$$$$$$$$$$$$##$$$$$$$$$$$$$$$$##$$$$$$$$$$##$$$$$$$$$$$$$$$$",
"##$$$$&&##$$$$$$$$$$$$&&##$$$$$$$$$$$$&&##$$$$##$$$$$$&&##$$$$$$$$$$$$&&##$$$$##$$$$$$&&##$$$$$$##$$$$&&##$$$$$$$$$$$$&&##$$$$$$",
"##$$$$&&##$$$$$$$$$$$$&&##$$$$$$$$$$$$&&##$$$$##$$$$$$&&##$$$$$$$$$$$$&&##$$$$##$$$$$$&&##$$$$$$##$$$$&&##$$$$$$$$$$$$&&##$$$$$$",
"$$$$@@####$$$$$$$$$$@@####$$$$$$$$$$@@####$$##$$##$$@@####$$$$$$$$$$@@####$$$$$$$$$$@@####$$$$##$$$$@@####$$$$$$$$$$@@####$$$$##",
"$$$$@@####$$$$$$$$$$@@####$$$$$$$$$$@@####$$##$$##$$@@####$$$$$$$$$$@@####$$$$$$$$$$@@####$$$$##$$$$@@####$$$$$$$$$$@@####$$$$##",
"##$$@@@@$$$$$$$$$$$$@@@@$$$$$$$$$$$$@@@@$$$$$$##$$$$@@@@$$$$$$$$$$$$@@@@$$$$$$$$$$$$@@@@$$$$####$$$$@@@@$$$$$$$$$$$$@@@@$$$$##$$",
"##$$@@@@$$$$$$$$$$$$@@@@$$$$$$$$$$$$@@@@$$$$$$##$$$$@@@@$$$$$$$$$$$$@@@@$$$$$$$$$$$$@@@@$$$$####$$$$@@@@$$$$$$$$$$$$@@@@$$$$##$$",
"$$$$$$$$$$$$$$$$$$$$$$$$$$$$$$$$$$$$$$$$$$$$##$$$$$$$$$$$$$$$$$$$$$$$$$$##$$$$$$$$$$$$$$$$$$##$$$$$$$$$$$$$$$$$$$$$$$$$$$$##$$##",
"$$$$$$$$$$$$$$$$$$$$$$$$$$$$$$$$$$$$$$$$$$$$##$$$$$$$$$$$$$$$$$$$$$$$$$$##$$$$$$$$$$$$$$$$$$##$$$$$$$$$$$$$$$$$$$$$$$$$$$$##$$##",
"@@oooooooooooo@@oo@@oo@@@@@@@@@@@@@@oo@@oo@@..@@..@@........@@..@@@@@@@@@@@@@@@@oo@@oo@@@@oo@@oo@@oooooooooooo@@oo@@oo@@@@@@@@@@",
"@@oooooooooooo@@oo@@oo@@@@@@@@@@@@@@oo@@oo@@..@@..@@........@@..@@@@@@@@@@@@@@@@oo@@oo@@@@oo@@oo@@oooooooooooo@@oo@@oo@@@@@@@@@@"
};
