/* XPM */
static char *_f3549ef74a642179278bb37bd75d2b4VUeu6uoqM44HKu0s[] = {
/* columns rows colors chars-per-pixel */
"128 128 56 1 ",
"  c #202020",
". c #2C2C2C",
"X c #303030",
"o c #383838",
"O c #400000",
"+ c #4C0000",
"@ c #580000",
"# c #640000",
"$ c #700000",
"% c #7C0000",
"& c #543C1C",
"* c #585400",
"= c #706C00",
"- c #744C28",
"; c #400040",
": c #480048",
"> c #500050",
", c #580058",
"< c #600064",
"1 c #6C0070",
"2 c #404040",
"3 c #484848",
"4 c #545454",
"5 c #646464",
"6 c #707070",
"7 c #7C7C7C",
"8 c #880000",
"9 c #980000",
"0 c #A40000",
"q c #B00000",
"w c #BC0000",
"e c #C80000",
"r c #D40000",
"t c #E00000",
"y c #EC0000",
"u c #FC0000",
"i c #FC2020",
"p c #B45400",
"a c #CC6000",
"s c #FC7800",
"d c #A86840",
"f c #848400",
"g c #9C9C00",
"h c #FC8820",
"j c #CCC400",
"k c #E4D800",
"l c #FCF400",
"z c #E88C58",
"x c #840084",
"c c #9C009C",
"v c #8C8C8C",
"b c #989898",
"n c #A8A8A8",
"m c #B4B4B4",
"M c #C0C0C0",
"N c #D0D0D0",
/* pixels */
"oooooooooooooooooooooooooooooooooooooooooooooooooooooooooooooooooooooooooooooooooooooooooooooooooooooooooooooooooooooooooooooooo",
"oooooooooooooooooooooooooooooooooooooooooooooooooooooooooooooooooooooooooooooooooooooooooooooooooooooooooooooooooooooooooooooooo",
"44oo443333333333443333333333334433oo333333333333334444444444443333333333333333334444444444444433333333oooooo333344443333333333oo",
"44oo443333333333443333333333334433oo333333333333334444444444443333333333333333334444444444444433333333oooooo333344443333333333oo",
"ooyyyyrrrrrrrrrrrrrrrrrr00333344yyyyrrrrrrrrrrrrrrrrrrrrrrrrrrrrrrrrrrrr0033oo44yyyyyyyyttttttttttttrrrrrrrrrreeeeeeeewwwwww0033",
"ooyyyyrrrrrrrrrrrrrrrrrr00333344yyyyrrrrrrrrrrrrrrrrrrrrrrrrrrrrrrrrrrrr0033oo44yyyyyyyyttttttttttttrrrrrrrrrreeeeeeeewwwwww0033",
"33lleeqqqqrr8800rr88ee00##..3344yyww88ww88ww88ww%%ww99ww99ww%%ww%%wwee00$$..33oorr00eeqqeeqqqqee$$ee%%eeqqee88qq00%%ee99ee00ll..",
"33lleeqqqqrr8800rr88ee00##..3344yyww88ww88ww88ww%%ww99ww99ww%%ww%%wwee00$$..33oorr00eeqqeeqqqqee$$ee%%eeqqee88qq00%%ee99ee00ll..",
"kkjjffmmmmmmmmmmmmmmmmmmmmmmmmmmmmmmmmmmmmmmmmmmmmmmmmmmmmmmmmmmmmmmmmmmmmmmmmmmmmmmmmmmmmmmmmmmmmmmmmmmmmmmmmmmmmmmmmmmmmjjjj==",
"kkjjffmmmmmmmmmmmmmmmmmmmmmmmmmmmmmmmmmmmmmmmmmmmmmmmmmmmmmmmmmmmmmmmmmmmmmmmmmmmmmmmmmmmmmmmmmmmmmmmmmmmmmmmmmmmmmmmmmmmmjjjj==",
"ddgg**66667777777777777777777777777777777777777777777777777777777777777777777777777777777777777777777777777777777777666666==zz**",
"ddgg**66667777777777777777777777777777777777777777777777777777777777777777777777777777777777777777777777777777777777666666==zz**",
"33&&0077777777bbbbbbbbbbbbbbbbbbbbbbbbbbbbbbbbbbbbbbbbbbbbbbbbbbbbbbbbbbbbbbbbbbbbbbbbbbbbbbbbbbbbbbbbbbbbbbbbbbbb77667777@@dd..",
"33&&0077777777bbbbbbbbbbbbbbbbbbbbbbbbbbbbbbbbbbbbbbbbbbbbbbbbbbbbbbbbbbbbbbbbbbbbbbbbbbbbbbbbbbbbbbbbbbbbbbbbbbbb77667777@@dd..",
"33ww%%bb77ii00OOOO44$$$$$$$$$$$$$$$$$$$$$$$$$$$$$$$$$$$$$$$$$$$$$$$$$$$$$$$$$$$$$$$$$$$$$$$$$$$$$$$$00qquutt77OOOOOO77MM66@@OO..",
"33ww%%bb77ii00OOOO44$$$$$$$$$$$$$$$$$$$$$$$$$$$$$$$$$$$$$$$$$$$$$$$$$$$$$$$$$$$$$$$$$$$$$$$$$$$$$$$$00qquutt77OOOOOO77MM66@@OO..",
"33ww00nn7700MMbb66OO77nnMMNNMMMMmmmmmmmmmmmmmmmmmmmmmmmmmmmmmmmmmmmmmmmmmmmmmmmmmmmmmmmmmmmmmmmmMMMMMMMMMM77OO7766bbii7766@@OO..",
"33ww00nn7700MMbb66OO77nnMMNNMMMMmmmmmmmmmmmmmmmmmmmmmmmmmmmmmmmmmmmmmmmmmmmmmmmmmmmmmmmmmmmmmmmmMMMMMMMMMM77OO7766bbii7766@@OO..",
"33%%##mmbbOObbMMbb77vvbbnnnnvv77nnNNMMmmmmmmmmmmmmmmmmmmmmmmmmmmmmmmmmmmmmmmmmmmmmmmmmmmmmmmmmvv1155MMmmnnnnnn66nnNN006677OOOO..",
"33%%##mmbbOObbMMbb77vvbbnnnnvv77nnNNMMmmmmmmmmmmmmmmmmmmmmmmmmmmmmmmmmmmmmmmmmmmmmmmmmmmmmmmmmvv1155MMmmnnnnnn66nnNN006677OOOO..",
"3333..NNnnOObbnnMMbb7777bbbb44,,66nnNNNNMMMMmmmmmmmmmmmmmmmmmmmmmmmmmmmmmmmmmmmmmmmmmmmmMMMMvv55<<>>bbnnnnbbbbnnNN77OO77bb    ..",
"3333..NNnnOObbnnMMbb7777bbbb44,,66nnNNNNMMMMmmmmmmmmmmmmmmmmmmmmmmmmmmmmmmmmmmmmmmmmmmmmMMMMvv55<<>>bbnnnnbbbbnnNN77OO77bb    ..",
"44ooooNNmm4466bbmmMMbb7777vv>>,,,,,,77nnNNMMMMMMMMMMmmmm>>6644>>>>>>>>ppaassmmmmmmmmMMMMvv55<<,,>>>>bbbbbbbbnnNNMM5544vvnn  ....",
"44ooooNNmm4466bbmmMMbb7777vv>>,,,,,,77nnNNMMMMMMMMMMmmmm>>6644>>>>>>>>ppaassmmmmmmmmMMMMvv55<<,,>>>>bbbbbbbbnnNNMM5544vvnn  ....",
"yyrrrrmmNNOO77bbnnmmMMbb665533::>>>>,,,,77nnmmmmmmmmmmmm>>>>>>>>>>77>>ppppaahhmmmmmmvv55<<,,>>>>>>33bbbbbbnnMMMMnn77OObbnn@@@@rr",
"yyrrrrmmNNOO77bbnnmmMMbb665533::>>>>,,,,77nnmmmmmmmmmmmm>>>>>>>>>>77>>ppppaahhmmmmmmvv55<<,,>>>>>>33bbbbbbnnMMMMnn77OObbnn@@@@rr",
"qq8888mmNN$$bbvvbbnnmm55,,665533::::>>>>,,,,,,77vvmmmmmm66>>>>>>>>>>>>ppvvmmmmvv55<<<<,,,,>>>>>>336666>>55nnMMnnvv77OOnnmm@@@@qq",
"qq8888mmNN$$bbvvbbnnmm55,,665533::::>>>>,,,,,,77vvmmmmmm66>>>>>>>>>>>>ppvvmmmmvv55<<<<,,,,>>>>>>336666>>55nnMMnnvv77OOnnmm@@@@qq",
"880088mmNNqqnnbbvvbb5511<<33665533::::::::xx,,,,,,66vvmmmm>>>>>>>>>>>>vvmmvv55<<<<,,xx>>>>>>::33664411<<<<55nnbb77vv$$nnmm@@@@99",
"880088mmNNqqnnbbvvbb5511<<33665533::::::::xx,,,,,,66vvmmmm>>>>>>>>>>>>vvmmvv55<<<<,,xx>>>>>>::33664411<<<<55nnbb77vv$$nnmm@@@@99",
"$$0000mmmm99mmbbvvvv::<<11<<,,335533oo::::11::,,,,,,,,mmmm>>>>>>>>>>>>mmmm,,<<<<,,>>11::::oo335533>><<<<1111bbvv77vv$$nnmm@@@@%%",
"$$0000mmmm99mmbbvvvv::<<11<<,,335533oo::::11::,,,,,,,,mmmm>>>>>>>>>>>>mmmm,,<<<<,,>>11::::oo335533>><<<<1111bbvv77vv$$nnmm@@@@%%",
"008888mmmm88MMnnbbvv::::<<11<<<<,,3344oo;;;;::::::,,44mmmm>>>>>>>>>>>>mmmm44::::::::::::oo3333::>>,,<<111111vv77vvvv$$nnmm@@@@%%",
"008888mmmm88MMnnbbvv::::<<11<<<<,,3344oo;;;;::::::,,44mmmm>>>>>>>>>>>>mmmm44::::::::::::oo3333::>>,,<<111111vv77vvvv$$nnmm@@@@%%",
"$$00##mmmm$$NNmmnnbb33::::<<1111<<,,::;;;;;;;;::::vvmmmm66>>>>>>>>>>>>66mmmmvv::::::;;;;;;::::>>,,<<11111144vv77vvbb$$mmmm@@@@88",
"$$00##mmmm$$NNmmnnbb33::::<<1111<<,,::;;;;;;;;::::vvmmmm66>>>>>>>>>>>>66mmmmvv::::::;;;;;;::::>>,,<<11111144vv77vvbb$$mmmm@@@@88",
"$$qq##mmmm$$NNMMmmbb5533::,,<<<<11<<,,11;;;;;;::vv>>66mm>>>>>>>>>>>>>>>>mm66::vv::;;;;::,,::::,,<<111111447777vvvvnn$$mmmm@@@@$$",
"$$qq##mmmm$$NNMMmmbb5533::,,<<<<11<<,,11;;;;;;::vv>>66mm>>>>>>>>>>>>>>>>mm66::vv::;;;;::,,::::,,<<111111447777vvvvnn$$mmmm@@@@$$",
"OO++++mmmm$$NNNN55>>66444433,,<<<<11,,xx>>;;;;::>>::>>mmmm>>>>>>>>>>>>mmmm::::::::::::,,11>>,,<<<<11447755333355bbnn$$mmmmOO@@OO",
"OO++++mmmm$$NNNN55>>66444433,,<<<<11,,xx>>;;;;::>>::>>mmmm>>>>>>>>>>>>mmmm::::::::::::,,11>>,,<<<<11447755333355bbnn$$mmmmOO@@OO",
"......mmmm$$mmNN,,>>::3344444433<<<<11,,xx>>>>>>::>>::7755>>>>>>>>>>>>5577::::::::::::11,,,,<<<<44vv775533;;;;::bbnn$$mmmm    ..",
"......mmmm$$mmNN,,>>::3344444433<<<<11,,xx>>>>>>::>>::7755>>>>>>>>>>>>5577::::::::::::11,,,,<<<<44vv775533;;;;::bbnn$$mmmm    ..",
"444433mmmm$$mmNN<<,,>>::::;;oo33334455,,,,,,,,::::::>>>>>>>>>>>>>>>>>>>>::::::::::::>>>>,,4455vv7744>>::;;;;;;::nnnn$$mmmm  ....",
"444433mmmm$$mmNN<<,,>>::::;;oo33334455,,,,,,,,::::::>>>>>>>>>>>>>>>>>>>>::::::::::::>>>>,,4455vv7744>>::;;;;;;::nnnn$$mmmm  ....",
"44yyyyMMMM%%MMmm<<<<>>>>::;;;;;;::::,,cc,,,,,,::::>>>>>>>>>>>>>>>>>>>>>>::::::::::>>,,,,cc,,,,,,>>>>::;;;;;;;;,,nnnn$$mmmm@@@@..",
"44yyyyMMMM%%MMmm<<<<>>>>::;;;;;;::::,,cc,,,,,,::::>>>>>>>>>>>>>>>>>>>>>>::::::::::>>,,,,cc,,,,,,>>>>::;;;;;;;;,,nnnn$$mmmm@@@@..",
"44yy88NNNN99NNMM,,<<,,>>::::;;;;;;::::xx,,,,,,>>>>>>>>>>>>>>>>>>>>>>>>>>>>::::>>>>,,,,,,cc,,,,,,>>::::;;;;;;::,,bbnn%%mmmm@@OO..",
"44yy88NNNN99NNMM,,<<,,>>::::;;;;;;::::xx,,,,,,>>>>>>>>>>>>>>>>>>>>>>>>>>>>::::>>>>,,,,,,cc,,,,,,>>::::;;;;;;::,,bbnn%%mmmm@@OO..",
"ooyyqqMMMM88MMbb66,,<<>>>>::;;;;::;;::11,,,,>>>>>>>>>>>>4444556666554444>>>>>>,,,,,,,,,,xx,,,,>>::::;;;;;;;;::66bbnn%%mmmm@@OO..",
"ooyyqqMMMM88MMbb66,,<<>>>>::;;;;::;;::11,,,,>>>>>>>>>>>>4444556666554444>>>>>>,,,,,,,,,,xx,,,,>>::::;;;;;;;;::66bbnn%%mmmm@@OO..",
"33ww##mmmm%%mmbbbb6633,,>>::::::>>::>>,,11>>>>>>>>>>>>>>5511cc1111cc1155>>>>,,,,,,,,,,xx,,,,>>::::::;;;;;;3366bbbbmm88mmmm@@OO..",
"33ww##mmmm%%mmbbbb6633,,>>::::::>>::>>,,11>>>>>>>>>>>>>>5511cc1111cc1155>>>>,,,,,,,,,,xx,,,,>>::::::;;;;;;3366bbbbmm88mmmm@@OO..",
"33wwqqmmmm$$mm>>,,335566665555443322XX::>>,,xx,,>>>>>>>>77cc11111111cc77>>,,>>,,,,xx,,,,,,44443322oo2233445533<<11MM99MMMM@@OO..",
"33wwqqmmmm$$mm>>,,335566665555443322XX::>>,,xx,,>>>>>>>>77cc11111111cc77>>,,>>,,,,xx,,,,,,44443322oo2233445533<<11MM99MMMM@@OO..",
"44ww$$nnnn$$nn>>>>,,,,,,,,>>::>>::>>::>>::>>,,xx11>>>>>>4411111111111144>>>>,,11xx,,,,,,,,>>::::::::;;::::>>,,<<11NN99NNNN@@OO..",
"44ww$$nnnn$$nn>>>>,,,,,,,,>>::>>::>>::>>::>>,,xx11>>>>>>4411111111111144>>>>,,11xx,,,,,,,,>>::::::::;;::::>>,,<<11NN99NNNN@@OO..",
"33ee00nnnn##nn>>>>>>,,,,,,>>>>::>>::>>::>>>>>>>>>>>>>>>>77cc11111111cc77>>,,>>,,>>,,,,,,>>::::::::::::::>>,,,,<<<<MM99MMMM@@OO..",
"33ee00nnnn##nn>>>>>>,,,,,,>>>>::>>::>>::>>>>>>>>>>>>>>>>77cc11111111cc77>>,,>>,,>>,,,,,,>>::::::::::::::>>,,,,<<<<MM99MMMM@@OO..",
"330099bbbb++bb>>>>,,>>,,>>,,>>>>>>>>>>>>>>>>>>>>>>>>>>>>4411cc3311cc1144>>>>,,>>,,,,,,>>>>::::::::::::::>>>><<11<<MM88MMMM@@OO..",
"330099bbbb++bb>>>>,,>>,,>>,,>>>>>>>>>>>>>>>>>>>>>>>>>>>>4411cc3311cc1144>>>>,,>>,,,,,,>>>>::::::::::::::>>>><<11<<MM88MMMM@@OO..",
"3333oonnnn@@nn>>>>>>,,>>,,>>>>>>>>>>>>44>>>>>>>>44>>>>>>7744113311114477>>,,>>44,,>>>>>>44::::::::::::::>>>><<<<>>mm%%mmmm    ..",
"3333oonnnn@@nn>>>>>>,,>>,,>>>>>>>>>>>>44>>>>>>>>44>>>>>>7744113311114477>>,,>>44,,>>>>>>44::::::::::::::>>>><<<<>>mm%%mmmm    ..",
"444444nnnn##nn55>>>>>>>>>>>>>>>>3366>>>>>>>>>>44>>>>>>>>4477774444777744>>>>>>,,44>>>>::>>::6633::::::>>>>,,<<,,55mm$$mmmm  ....",
"444444nnnn##nn55>>>>>>>>>>>>>>>>3366>>>>>>>>>>44>>>>>>>>4477774444777744>>>>>>,,44>>>>::>>::6633::::::>>>>,,<<,,55mm$$mmmm  ....",
"wwwwwwmmmm$$mmbb55>>>>>>>>336666>>>>>>>>>>>>66>>>>>>>>>>>>>>44777744>>>>>>>>,,>>>>66>>>>::::::>>666633>>>>,,,,55bbmm$$mmmm@@@@ww",
"wwwwwwmmmm$$mmbb55>>>>>>>>336666>>>>>>>>>>>>66>>>>>>>>>>>>>>44777744>>>>>>>>,,>>>>66>>>>::::::>>666633>>>>,,,,55bbmm$$mmmm@@@@ww",
"00qq00mmmm$$mmmmmmbbbbbbbb66>>>>>>>>>>>>>>66>>>>>>>>>>>>>>>>>>>>>>>>>>>>>>>>>>>>>>>>66::>>::::::::>>66bbbbbbbbmmnnnn##nnnn@@@@00",
"00qq00mmmm$$mmmmmmbbbbbbbb66>>>>>>>>>>>>>>66>>>>>>>>>>>>>>>>>>>>>>>>>>>>>>>>>>>>>>>>66::>>::::::::>>66bbbbbbbbmmnnnn##nnnn@@@@00",
"00%%88mmmm$$mmmmbbbb66>>>>>>>>>>>>>>>>>>66>>>>>>>>>>>>>>>>>>>>>>>>>>>>>>>>>>>>>>>>>>>>66::>>::>>::>>,,,,,,66bbbbbbbb@@bbbb@@@@$$",
"00%%88mmmm$$mmmmbbbb66>>>>>>>>>>>>>>>>>>66>>>>>>>>>>>>>>>>>>>>>>>>>>>>>>>>>>>>>>>>>>>>66::>>::>>::>>,,,,,,66bbbbbbbb@@bbbb@@@@$$",
"88%%00mmmm$$mmmm>>>>>>>>>>>>>>>>>>>>>>66>>>>>>>>66>>66>>>>>>>>>>>>>>>>>>>>66>>66>>>>>>>>66::>>::>>,,,,,,,,,,>>>>vvvv++vvvv@@@@$$",
"88%%00mmmm$$mmmm>>>>>>>>>>>>>>>>>>>>>>66>>>>>>>>66>>66>>>>>>>>>>>>>>>>>>>>66>>66>>>>>>>>66::>>::>>,,,,,,,,,,>>>>vvvv++vvvv@@@@$$",
"0088%%mmmm$$mmmm>>>>>>>>>>>>>>>>>>>>66>>>>>>>>55bb66>>>>>>>>>>>>>>>>>>>>>>>>66bb55>>>>>>>>66>>>>>>>>,,,,,,,,>>>>bbbb@@bbbb@@@@88",
"0088%%mmmm$$mmmm>>>>>>>>>>>>>>>>>>>>66>>>>>>>>55bb66>>>>>>>>>>>>>>>>>>>>>>>>66bb55>>>>>>>>66>>>>>>>>,,,,,,,,>>>>bbbb@@bbbb@@@@88",
"0088%%mmmm%%mmmm66>>>>>>>>>>>>>>>>66>>>>>>>>>>bb>>>>>>>>>>>>>>>>>>>>>>>>>>>>>>>>bb>>>>>>>>>>66>>>>,,,,,,,,,,>>66bbbb##bbbb@@@@$$",
"0088%%mmmm%%mmmm66>>>>>>>>>>>>>>>>66>>>>>>>>>>bb>>>>>>>>>>>>>>>>>>>>>>>>>>>>>>>>bb>>>>>>>>>>66>>>>,,,,,,,,,,>>66bbbb##bbbb@@@@$$",
"$$$$88mmmm%%mmmmbb>>>>>>>>>>>>>>66>>>>>>>>>>bb>>>>>>>>>>>>>>>>>>>>>>>>>>>>>>>>>>>>bb>>>>>>>>>>66>>>>,,>>,,>>>>bbnnnn##nnnn@@@@$$",
"$$$$88mmmm%%mmmmbb>>>>>>>>>>>>>>66>>>>>>>>>>bb>>>>>>>>>>>>>>>>>>>>>>>>>>>>>>>>>>>>bb>>>>>>>>>>66>>>>,,>>,,>>>>bbnnnn##nnnn@@@@$$",
"OOOO++mmmm88mmmmmm66>>>>>>>>>>66>>>>>>>>>>>>>>>>>>>>>>>>>>>>>>>>>>>>>>>>>>>>>>>>>>>>>>>>>>>>>>>>66>>>>>>,,>>66mmmmmm##mmmm@@@@OO",
"OOOO++mmmm88mmmmmm66>>>>>>>>>>66>>>>>>>>>>>>>>>>>>>>>>>>>>>>>>>>>>>>>>>>>>>>>>>>>>>>>>>>>>>>>>>>66>>>>>>,,>>66mmmmmm##mmmm@@@@OO",
"......MMMM88MMMMMMmm66>>>>>>66>>>>>>>>>>>>bb>>>>>>>>>>>>>>>>>>>>>>>>>>>>>>>>>>>>>>>>bb>>>>>>>>>>>>66>>>>>>66mmmmmmmm$$mmmm    ..",
"......MMMM88MMMMMMmm66>>>>>>66>>>>>>>>>>>>bb>>>>>>>>>>>>>>>>>>>>>>>>>>>>>>>>>>>>>>>>bb>>>>>>>>>>>>66>>>>>>66mmmmmmmm$$mmmm    ..",
"443344NNNN00NNNNNNmmmmbbbbbbbb>>>>>>>>>>bbmmcc>>>>>>>>>>>>66>>>>>>>>66>>>>>>>>>>>>ccmmbb>>>>>>>>>>bbbbbbbbmmmmmmmmmm$$mmmm  ....",
"443344NNNN00NNNNNNmmmmbbbbbbbb>>>>>>>>>>bbmmcc>>>>>>>>>>>>66>>>>>>>>66>>>>>>>>>>>>ccmmbb>>>>>>>>>>bbbbbbbbmmmmmmmmmm$$mmmm  ....",
"ooyyrrMMMM99MMMMMMmmmmmmmmmmbbbb>>>>>>bbmmmmmm66>>>>>>>>>>>>>>>>>>>>>>>>>>>>>>>>66mmmmmmbb>>>>>>bbbbmmmmmmmmmmmmMMMM88MMMM@@@@..",
"ooyyrrMMMM99MMMMMMmmmmmmmmmmbbbb>>>>>>bbmmmmmm66>>>>>>>>>>>>>>>>>>>>>>>>>>>>>>>>66mmmmmmbb>>>>>>bbbbmmmmmmmmmmmmMMMM88MMMM@@@@..",
"44rr00mmmm99mmmmmmmmmmmmmm77pppp77mmmmmmmm77pp>>>>>>>>>>>>>>>>>>>>>>>>>>>>>>>>>>>>pp77mmmmmmmm77pppp77mmmmMMMMMMMMMM88MMMM@@OO..",
"44rr00mmmm99mmmmmmmmmmmmmm77pppp77mmmmmmmm77pp>>>>>>>>>>>>>>>>>>>>>>>>>>>>>>>>>>>>pp77mmmmmmmm77pppp77mmmmMMMMMMMMMM88MMMM@@OO..",
"33rr00mmmm88mmmmmmmmmmmmmmpppppppppppppppppppp---->>>>66mm>>>>>>>>>>>>mm66>>>>----ppppppppppppppppppppMMMMMMMMNNNNNN99NNNN@@OO..",
"33rr00mmmm88mmmmmmmmmmmmmmpppppppppppppppppppp---->>>>66mm>>>>>>>>>>>>mm66>>>>----ppppppppppppppppppppMMMMMMMMNNNNNN99NNNN@@OO..",
"33rr88mmmm88mmmmmmmmmmmmmmmm7755--pppppppp----77mmmmmmmm>>>>>>>>>>>>>>>>mmmmmmmm77----pppppppp--5577mmmmmmMMMMMMMMMM99MMMM@@OO..",
"33rr88mmmm88mmmmmmmmmmmmmmmm7755--pppppppp----77mmmmmmmm>>>>>>>>>>>>>>>>mmmmmmmm77----pppppppp--5577mmmmmmMMMMMMMMMM99MMMM@@OO..",
"oorr00mmmm%%mmmmmmmmmmmmmmvvppppppppppppppppppppmmmmmm>>>>>>>>>>>>>>>>>>>>mmmmmmppppppppppppppppppppvvmmmmmmmmmmMMMM88MMMM@@OO..",
"oorr00mmmm%%mmmmmmmmmmmmmmvvppppppppppppppppppppmmmmmm>>>>>>>>>>>>>>>>>>>>mmmmmmppppppppppppppppppppvvmmmmmmmmmmMMMM88MMMM@@OO..",
"44rr00nnnn$$nnnnnnnnmmmmmmpp----vvpppp--mmvv--ppmm77>>>>>>>>>>>>>>>>>>>>>>>>77mmpp--vvmm--ppppvv----ppmmmmmmmmmmmmmm$$mmmm@@OO..",
"44rr00nnnn$$nnnnnnnnmmmmmmpp----vvpppp--mmvv--ppmm77>>>>>>>>>>>>>>>>>>>>>>>>77mmpp--vvmm--ppppvv----ppmmmmmmmmmmmmmm$$mmmm@@OO..",
"ooee00nnnn$$nnnnnnnnnnnnmm--77vvmmpp--mmmmmmmm7744>>>>>>>>>>>>>>>>>>>>>>>>>>>>4477mmmmmmmm--ppmmvv77--mmmmmmmmmmmmmm$$mmmm@@OO..",
"ooee00nnnn$$nnnnnnnnnnnnmm--77vvmmpp--mmmmmmmm7744>>>>>>>>>>>>>>>>>>>>>>>>>>>>4477mmmmmmmm--ppmmvv77--mmmmmmmmmmmmmm$$mmmm@@OO..",
"4400##mmmm$$mmmmmmmmmmmmmmmmmmmmmmpp--mmmm7744>>>>>>>>>>>>>>>>>>>>>>>>>>>>>>>>>>>>4477mmmm--ppmmmmmmmmmmmmmmmmmmmmmm$$mmmmOOOO..",
"4400##mmmm$$mmmmmmmmmmmmmmmmmmmmmmpp--mmmm7744>>>>>>>>>>>>>>>>>>>>>>>>>>>>>>>>>>>>4477mmmm--ppmmmmmmmmmmmmmmmmmmmmmm$$mmmmOOOO..",
"oo33..mmmm$$bbmmmmmmmmmmmmmmmmmmmmvvppmm>>>>>>>>>>>>>>>>>>77>>>>>>>>77>>>>>>>>>>>>>>>>>>mmppvvmmmmmmmmmmmmmmmmmmmmbb$$mmmm    ..",
"oo33..mmmm$$bbmmmmmmmmmmmmmmmmmmmmvvppmm>>>>>>>>>>>>>>>>>>77>>>>>>>>77>>>>>>>>>>>>>>>>>>mmppvvmmmmmmmmmmmmmmmmmmmmbb$$mmmm    ..",
"44oo44mmmm$$77mmmmmmmmmmmmmmmmmmmmmmmmmm7744>>>>>>>>>>55mm>>>>>>>>>>>>mm55>>>>>>>>>>4477mmmmmmmmmmmmmmmmmmmmmmmmmm77$$mmmm  ....",
"44oo44mmmm$$77mmmmmmmmmmmmmmmmmmmmmmmmmm7744>>>>>>>>>>55mm>>>>>>>>>>>>mm55>>>>>>>>>>4477mmmmmmmmmmmmmmmmmmmmmmmmmm77$$mmmm  ....",
"rrrrrrmmmm77$$77bbmmmmmmmmmmmmmmmmmmmmmmmmmm7744>>>>55mm77>>>>>>>>>>>>77mm55>>>>4477mmmmmmmmmmmmmmmmmmmmmmmmmmbb77$$77mmmm@@@@ww",
"rrrrrrmmmm77$$77bbmmmmmmmmmmmmmmmmmmmmmmmmmm7744>>>>55mm77>>>>>>>>>>>>77mm55>>>>4477mmmmmmmmmmmmmmmmmmmmmmmmmmbb77$$77mmmm@@@@ww",
"%%00@@77mmmm77$$$$$$77bbmmmmmmmmmmmmmmmmmmmmmmmmmmmmmmmm>>>>>>>>>>>>>>>>mmmmmmmmmmmmmmmmmmmmmmmmmmmmmmmmbbvv$$$$$$77bbmm77@@@@$$",
"%%00@@77mmmm77$$$$$$77bbmmmmmmmmmmmmmmmmmmmmmmmmmmmmmmmm>>>>>>>>>>>>>>>>mmmmmmmmmmmmmmmmmmmmmmmmmmmmmmmmbbvv$$$$$$77bbmm77@@@@$$",
"00%%%%@@77mmmmmmbb77$$$$$$$$77bbmmmmmmmmmmmmmmmmmmmmmmmm55>>>>>>>>>>>>55mmmmmmmmmmmmmmmmmmmmmmmmbb77$$$$$$$$vvbbmmmmmm77@@@@@@++",
"00%%%%@@77mmmmmmbb77$$$$$$$$77bbmmmmmmmmmmmmmmmmmmmmmmmm55>>>>>>>>>>>>55mmmmmmmmmmmmmmmmmmmmmmmmbb77$$$$$$$$vvbbmmmmmm77@@@@@@++",
"00%%@@@@@@4477mmmmmmmmmmbb77$$$$$$77bbmmmmmmmmmmmmmmmmmmmm55>>>>>>>>55mmmmmmmmmmmmmmmmmmmmbb77$$$$$$77bbmmmmmmmmmm7744@@@@@@$$88",
"00%%@@@@@@4477mmmmmmmmmmbb77$$$$$$77bbmmmmmmmmmmmmmmmmmmmm55>>>>>>>>55mmmmmmmmmmmmmmmmmmmmbb77$$$$$$77bbmmmmmmmmmm7744@@@@@@$$88",
"%%99@@@@@@@@@@4477mmmmmmmmmmmmbb77$$$$$$77bbmmmmmmmmmmmmmmmm55>>>>55mmmmmmmmmmmmmmmmbb77$$$$$$77bbmmmmmmmmmm7744@@@@@@@@@@##$$00",
"%%99@@@@@@@@@@4477mmmmmmmmmmmmbb77$$$$$$77bbmmmmmmmmmmmmmmmm55>>>>55mmmmmmmmmmmmmmmmbb77$$$$$$77bbmmmmmmmmmm7744@@@@@@@@@@##$$00",
"##00%%00##@@##@@@@@@@@4477mmmmmmmmmmbb77$$$$$$77bbmmmmmmmmmmmm5555mmmmmmmmmmmmbb77$$$$$$77bbmmmmmmmmmm7744@@@@@@@@@@@@$$@@00$$00",
"##00%%00##@@##@@@@@@@@4477mmmmmmmmmmbb77$$$$$$77bbmmmmmmmmmmmm5555mmmmmmmmmmmmbb77$$$$$$77bbmmmmmmmmmm7744@@@@@@@@@@@@$$@@00$$00",
"##00%%%%##9999##@@@@@@@@@@@@4477mmmmmmmmmmbb77$$$$$$$$77bbmmmmmmmmmmmmbb77$$$$$$$$77bbmmmmmmmmmm7744@@@@@@@@@@@@@@$$00$$@@##00++",
"##00%%%%##9999##@@@@@@@@@@@@4477mmmmmmmmmmbb77$$$$$$$$77bbmmmmmmmmmmmmbb77$$$$$$$$77bbmmmmmmmmmm7744@@@@@@@@@@@@@@$$00$$@@##00++",
"%%99@@00####88##%%%%00@@@@@@@@@@@@OO4477mmmmmmmmmmbb77$$$$$$77bbbb77$$$$$$77bbmmmmmmmmmm7744OO......@@@@@@@@00@@00$$00$$00##00$$",
"%%99@@00####88##%%%%00@@@@@@@@@@@@OO4477mmmmmmmmmmbb77$$$$$$77bbbb77$$$$$$77bbmmmmmmmmmm7744OO......@@@@@@@@00@@00$$00$$00##00$$",
"++++++++++++++++++++++++++++++++OOOO    ..4477mmmmmmmmmmbb77$$$$$$$$77bbmmmmmmmm7744++++++OOOO  ....@@OOOO++++++++++++++++++++++",
"++++++++++++++++++++++++++++++++OOOO    ..4477mmmmmmmmmmbb77$$$$$$$$77bbmmmmmmmm7744++++++OOOO  ....@@OOOO++++++++++++++++++++++",
"......................................          ..4477mmmmmmmmmmmmmmmmmmmm7744          ..      ..................          ....",
"......................................          ..4477mmmmmmmmmmmmmmmmmmmm7744          ..      ..................          ....",
"oo44oo44oooooo333333333344oooooooo..............          4477mmmm7744..          ................oooo3333443333333322oo22333333",
"oo44oo44oooooo333333333344oooooooo..............          4477mmmm7744..          ................oooo3333443333333322oo22333333",
"4444444444444444444444444444444444444433oooooo....                                  ..oooooo333344444444444444444444444444444444",
"4444444444444444444444444444444444444433oooooo....                                  ..oooooo333344444444444444444444444444444444"
};
