/* XPM */
static char *_62377861d5447c69d486b334b2de019eNA7TqU4xHCfC799[] = {
/* columns rows colors chars-per-pixel */
"128 128 12 1 ",
"  c #000000",
". c #080808",
"X c #0C0C0C",
"o c #140C0A",
"O c #110E0E",
"+ c #121212",
"@ c #181215",
"# c #181A1C",
"$ c #1E2123",
"% c #242B2E",
"& c #2C373C",
"* c #4D3309",
/* pixels */
"                                                                                                                                ",
"                                                                                                                                ",
"$$$$$$$$$$$$$$$$$$$$$$$$$$##$$##$$##$$######..  $$$$$$$$$$$$##$$##$$##$$########    ####$$##$$##$$$$$$$$$$$$$$$$$$$$$$##$$##$$$$",
"$$$$$$$$$$$$$$$$$$$$$$$$$$##$$##$$##$$######..  $$$$$$$$$$$$##$$##$$##$$########    ####$$##$$##$$$$$$$$$$$$$$$$$$$$$$##$$##$$$$",
"############################################..  $$##############################    ############################################",
"############################################..  $$##############################    ############################################",
"############################################..  $$##&&####################&&####    ############################################",
"############################################..  $$##&&####################&&####    ############################################",
"################################@@&&$$######..  $$@@####################@@######    ####@@&&$$##################################",
"################################@@&&$$######..  $$@@####################@@######    ####@@&&$$##################################",
"################################@@$$$$######..  $$##############################  ..####@@$$$$##################################",
"################################@@$$$$######..  $$##############################  ..####@@$$$$##################################",
"################################@@@@########..  $$##############################..  ####@@@@####################################",
"################################@@@@########..  $$##############################..  ####@@@@####################################",
"############################################..  $$##############################  ..############################################",
"############################################..  $$##############################  ..############################################",
"$$$$$$$$$$$$$$$$$$$$$$$$$$$$$$$$$$$$$$$$$$$$OO..$$##############################..  $$$$$$$$$$$$$$$$$$$$$$$$$$$$$$$$$$$$$$$$$$$$",
"$$$$$$$$$$$$$$$$$$$$$$$$$$$$$$$$$$$$$$$$$$$$OO..$$##############################..  $$$$$$$$$$$$$$$$$$$$$$$$$$$$$$$$$$$$$$$$$$$$",
"############################################..  $$##############################  ..############################################",
"############################################..  $$##############################  ..############################################",
"$$$$$$$$$$$$$$$$$$$$$$$$$$$$$$$$$$$$$$$$$$$$OO..&&$$$$$$$$$$$$$$$$$$$$$$$$$$$$$$..  $$$$$$$$$$$$$$$$$$$$$$$$$$$$$$$$$$$$$$$$$$$$",
"$$$$$$$$$$$$$$$$$$$$$$$$$$$$$$$$$$$$$$$$$$$$OO..&&$$$$$$$$$$$$$$$$$$$$$$$$$$$$$$..  $$$$$$$$$$$$$$$$$$$$$$$$$$$$$$$$$$$$$$$$$$$$",
"$$$$$$$$$$$$$$$$$$$$$$$$$$$$$$$$$$$$$$$$$$$$..  $$##############################  OO$$$$$$$$$$$$$$$$$$$$$$$$$$$$$$$$$$$$$$$$$$$$",
"$$$$$$$$$$$$$$$$$$$$$$$$$$$$$$$$$$$$$$$$$$$$..  $$##############################  OO$$$$$$$$$$$$$$$$$$$$$$$$$$$$$$$$$$$$$$$$$$$$",
"$$$$$$$$$$$$$$$$$$$$$$$$$$$$$$$$$$$$$$$$$$$$OO..&&$$$$$$$$$$$$$$$$$$$$$$$$$$$$$$OO..$$$$$$$$$$$$$$$$$$$$$$$$$$$$$$$$$$$$$$$$$$$$",
"$$$$$$$$$$$$$$$$$$$$$$$$$$$$$$$$$$$$$$$$$$$$OO..&&$$$$$$$$$$$$$$$$$$$$$$$$$$$$$$OO..$$$$$$$$$$$$$$$$$$$$$$$$$$$$$$$$$$$$$$$$$$$$",
"$$$$$$$$$$$$$$$$$$$$$$$$$$$$$$$$$$$$$$$$$$$$OO..&&$$$$$$$$$$$$$$$$$$$$$$$$$$$$$$..OO$$$$$$$$$$$$$$$$$$$$$$$$$$$$$$$$$$$$$$$$$$$$",
"$$$$$$$$$$$$$$$$$$$$$$$$$$$$$$$$$$$$$$$$$$$$OO..&&$$$$$$$$$$$$$$$$$$$$$$$$$$$$$$..OO$$$$$$$$$$$$$$$$$$$$$$$$$$$$$$$$$$$$$$$$$$$$",
"$$$$$$$$$$$$$$$$$$$$$$$$$$$$$$$$$$$$$$$$$$$$OO..&&$$$$$$$$$$$$$$$$$$$$$$$$$$$$$$OO..$$$$$$$$$$$$$$$$$$$$$$$$$$$$$$$$$$$$$$$$$$$$",
"$$$$$$$$$$$$$$$$$$$$$$$$$$$$$$$$$$$$$$$$$$$$OO..&&$$$$$$$$$$$$$$$$$$$$$$$$$$$$$$OO..$$$$$$$$$$$$$$$$$$$$$$$$$$$$$$$$$$$$$$$$$$$$",
"$$$$$$$$$$$$$$$$$$$$$$$$$$$$$$$$$$$$$$$$$$$$OO..&&$$$$$$$$$$$$$$$$$$$$$$$$$$$$$$..OO$$$$$$$$$$$$$$$$$$$$$$$$$$$$$$$$$$$$$$$$$$$$",
"$$$$$$$$$$$$$$$$$$$$$$$$$$$$$$$$$$$$$$$$$$$$OO..&&$$$$$$$$$$$$$$$$$$$$$$$$$$$$$$..OO$$$$$$$$$$$$$$$$$$$$$$$$$$$$$$$$$$$$$$$$$$$$",
"$$$$$$$$$$$$$$$$$$$$$$$$$$$$$$$$$$$$$$$$$$$$OO..&&$$$$$$$$$$$$$$$$$$$$$$$$$$$$$$OO..$$$$$$$$$$$$$$$$$$$$$$$$$$$$$$$$$$$$$$$$$$$$",
"$$$$$$$$$$$$$$$$$$$$$$$$$$$$$$$$$$$$$$$$$$$$OO..&&$$$$$$$$$$$$$$$$$$$$$$$$$$$$$$OO..$$$$$$$$$$$$$$$$$$$$$$$$$$$$$$$$$$$$$$$$$$$$",
"$$$$$$$$$$$$$$$$$$$$$$$$$$$$$$$$$$$$$$$$$$$$....&&$$$$$$$$$$$$$$$$$$$$$$$$$$$$$$..OO$$$$$$$$$$$$$$$$$$$$$$$$$$$$$$$$$$$$$$$$$$$$",
"$$$$$$$$$$$$$$$$$$$$$$$$$$$$$$$$$$$$$$$$$$$$....&&$$$$$$$$$$$$$$$$$$$$$$$$$$$$$$..OO$$$$$$$$$$$$$$$$$$$$$$$$$$$$$$$$$$$$$$$$$$$$",
"$$$$$$$$$$$$$$$$$$$$$$$$$$$$$$$$$$$$$$$$$$$$OO..&&$$$$$$$$$$$$$$$$$$$$$$$$$$$$$$OOOO$$$$$$$$$$$$$$$$$$$$$$$$$$$$$$$$$$$$$$$$$$$$",
"$$$$$$$$$$$$$$$$$$$$$$$$$$$$$$$$$$$$$$$$$$$$OO..&&$$$$$$$$$$$$$$$$$$$$$$$$$$$$$$OOOO$$$$$$$$$$$$$$$$$$$$$$$$$$$$$$$$$$$$$$$$$$$$",
"$$$$$$$$$$$$$$$$$$$$$$$$$$$$$$$$$$$$$$$$$$$$....&&$$$$$$$$$$$$$$$$$$$$$$$$$$$$$$..OO$$$$$$$$$$$$$$$$$$$$$$$$$$$$$$$$$$$$$$$$$$$$",
"$$$$$$$$$$$$$$$$$$$$$$$$$$$$$$$$$$$$$$$$$$$$....&&$$$$$$$$$$$$$$$$$$$$$$$$$$$$$$..OO$$$$$$$$$$$$$$$$$$$$$$$$$$$$$$$$$$$$$$$$$$$$",
"$$$$$$$$$$$$$$$$$$$$$$$$$$$$$$$$$$$$$$$$$$$$OO..&&$$$$$$$$$$$$$$$$$$$$$$$$$$$$$$OOOO$$$$$$$$$$$$$$$$$$$$$$$$$$$$$$$$$$$$$$$$$$$$",
"$$$$$$$$$$$$$$$$$$$$$$$$$$$$$$$$$$$$$$$$$$$$OO..&&$$$$$$$$$$$$$$$$$$$$$$$$$$$$$$OOOO$$$$$$$$$$$$$$$$$$$$$$$$$$$$$$$$$$$$$$$$$$$$",
"$$$$$$$$$$$$$$$$$$$$$$$$$$$$$$$$$$$$$$$$$$$$....$$$$$$$$$$$$$$$$$$$$$$$$$$$$$$$$..OO$$$$$$$$$$$$$$$$$$$$$$$$$$$$$$$$$$$$$$$$$$$$",
"$$$$$$$$$$$$$$$$$$$$$$$$$$$$$$$$$$$$$$$$$$$$....$$$$$$$$$$$$$$$$$$$$$$$$$$$$$$$$..OO$$$$$$$$$$$$$$$$$$$$$$$$$$$$$$$$$$$$$$$$$$$$",
"$$$$$$$$$$$$$$$$$$$$$$$$$$$$$$$$$$$$$$$$$$$$OO..&&$$$$$$$$$$$$$$$$$$$$$$$$$$$$$$OOOO$$$$$$$$$$$$$$$$$$$$$$$$$$$$$$$$$$$$$$$$$$$$",
"$$$$$$$$$$$$$$$$$$$$$$$$$$$$$$$$$$$$$$$$$$$$OO..&&$$$$$$$$$$$$$$$$$$$$$$$$$$$$$$OOOO$$$$$$$$$$$$$$$$$$$$$$$$$$$$$$$$$$$$$$$$$$$$",
"$$$$$$$$$$$$$$$$$$$$$$$$$$$$$$$$$$$$$$$$$$$$....$$$$$$$$$$$$$$$$$$$$$$$$$$$$$$$$..OO$$$$$$$$$$$$$$$$$$$$$$$$$$$$$$$$$$$$$$$$$$$$",
"$$$$$$$$$$$$$$$$$$$$$$$$$$$$$$$$$$$$$$$$$$$$....$$$$$$$$$$$$$$$$$$$$$$$$$$$$$$$$..OO$$$$$$$$$$$$$$$$$$$$$$$$$$$$$$$$$$$$$$$$$$$$",
"$$$$$$$$$$$$$$$$$$$$$$$$$$$$$$$$$$$$$$$$$$$$....&&$$$$$$$$$$$$$$$$$$$$$$$$$$$$$$..OO$$$$$$$$$$$$$$$$$$$$$$$$$$$$$$$$$$$$$$$$$$$$",
"$$$$$$$$$$$$$$$$$$$$$$$$$$$$$$$$$$$$$$$$$$$$....&&$$$$$$$$$$$$$$$$$$$$$$$$$$$$$$..OO$$$$$$$$$$$$$$$$$$$$$$$$$$$$$$$$$$$$$$$$$$$$",
"$$$$$$$$$$$$$$$$$$$$$$$$$$$$$$$$$$$$$$$$$$$$....$$$$$$$$$$$$$$$$$$$$$$$$$$$$$$$$..OO$$$$$$$$$$$$$$$$$$$$$$$$$$$$$$$$$$$$$$$$$$$$",
"$$$$$$$$$$$$$$$$$$$$$$$$$$$$$$$$$$$$$$$$$$$$....$$$$$$$$$$$$$$$$$$$$$$$$$$$$$$$$..OO$$$$$$$$$$$$$$$$$$$$$$$$$$$$$$$$$$$$$$$$$$$$",
"$$$$$$$$$$$$$$$$$$$$$$$$$$$$$$$$$$$$$$$$$$$$....&&$$$$$$$$$$$$$$$$$$$$$$$$$$$$$$..OO$$$$$$$$$$$$$$$$$$$$$$$$$$$$$$$$$$$$$$$$$$$$",
"$$$$$$$$$$$$$$$$$$$$$$$$$$$$$$$$$$$$$$$$$$$$....&&$$$$$$$$$$$$$$$$$$$$$$$$$$$$$$..OO$$$$$$$$$$$$$$$$$$$$$$$$$$$$$$$$$$$$$$$$$$$$",
"$$$$$$$$$$$$$$$$$$$$$$$$$$$$$$$$$$$$$$$$$$$$....$$$$$$$$$$$$$$$$$$$$$$$$$$$$$$$$OOOO$$$$$$$$$$$$$$$$$$$$$$$$$$$$$$$$$$$$$$$$$$$$",
"$$$$$$$$$$$$$$$$$$$$$$$$$$$$$$$$$$$$$$$$$$$$....$$$$$$$$$$$$$$$$$$$$$$$$$$$$$$$$OOOO$$$$$$$$$$$$$$$$$$$$$$$$$$$$$$$$$$$$$$$$$$$$",
"******************************************$$....$$$$$$$$$$$$$$$$$$$$$$$$$$$$$$$$..OO$$******************************************",
"******************************************$$....$$$$$$$$$$$$$$$$$$$$$$$$$$$$$$$$..OO$$******************************************",
"******************************************$$....$$$$$$$$$$$$$$$$$$$$$$$$$$$$$$$$OOOO$$******************************************",
"******************************************$$....$$$$$$$$$$$$$$$$$$$$$$$$$$$$$$$$OOOO$$******************************************",
"******************************************$$....$$****************************$$..OO$$******************************************",
"******************************************$$....$$****************************$$..OO$$******************************************",
"******************************************$$..OO$$****************************$$OOOO$$******************************************",
"******************************************$$..OO$$****************************$$OOOO$$******************************************",
"$$$$$$$$$$$$$$$$$$$$$$$$$$$$$$$$$$$$$$$$$$$$OO..$$****************************$$OOOO$$$$$$$$$$$$$$$$$$$$$$$$$$$$$$$$$$$$$$$$$$$$",
"$$$$$$$$$$$$$$$$$$$$$$$$$$$$$$$$$$$$$$$$$$$$OO..$$****************************$$OOOO$$$$$$$$$$$$$$$$$$$$$$$$$$$$$$$$$$$$$$$$$$$$",
"$$$$$$$$$$$$$$$$$$$$$$$$$$$$$$$$@@&&##$$$$$$..OO$$****************************$$OOOO$$$$@@&&##$$$$$$$$$$$$$$$$$$$$$$$$$$$$$$$$$$",
"$$$$$$$$$$$$$$$$$$$$$$$$$$$$$$$$@@&&##$$$$$$..OO$$****************************$$OOOO$$$$@@&&##$$$$$$$$$$$$$$$$$$$$$$$$$$$$$$$$$$",
"$$$$$$$$$$$$$$$$$$$$$$$$$$$$$$$$@@####$$$$$$OO..$$$$$$$$$$$$$$$$$$$$$$$$$$$$$$$$OOOO$$$$@@####$$$$$$$$$$$$$$$$$$$$$$$$$$$$$$$$$$",
"$$$$$$$$$$$$$$$$$$$$$$$$$$$$$$$$@@####$$$$$$OO..$$$$$$$$$$$$$$$$$$$$$$$$$$$$$$$$OOOO$$$$@@####$$$$$$$$$$$$$$$$$$$$$$$$$$$$$$$$$$",
"$$$$$$$$$$$$$$$$$$$$$$$$$$$$$$$$@@@@$$$$$$$$..OO$$$$$$$$$$$$$$$$$$$$$$$$$$$$$$$$OOOO$$$$@@@@$$$$$$$$$$$$$$$$$$$$$$$$$$$$$$$$$$$$",
"$$$$$$$$$$$$$$$$$$$$$$$$$$$$$$$$@@@@$$$$$$$$..OO$$$$$$$$$$$$$$$$$$$$$$$$$$$$$$$$OOOO$$$$@@@@$$$$$$$$$$$$$$$$$$$$$$$$$$$$$$$$$$$$",
"$$$$$$$$$$$$$$$$$$$$$$$$$$$$$$$$$$$$$$$$$$$$OOOO$$$$&&$$$$$$$$$$$$$$$$$$$$&&$$$$OOOO$$$$$$$$$$$$$$$$$$$$$$$$$$$$$$$$$$$$$$$$$$$$",
"$$$$$$$$$$$$$$$$$$$$$$$$$$$$$$$$$$$$$$$$$$$$OOOO$$$$&&$$$$$$$$$$$$$$$$$$$$&&$$$$OOOO$$$$$$$$$$$$$$$$$$$$$$$$$$$$$$$$$$$$$$$$$$$$",
"&&&&&&&&&&&&&&&&&&&&&&&&&&&&&&&&&&&&&&$$&&$$OOOO$$@@$$$$$$$$$$$$$$$$$$$$@@$$$$$$OOOO$$&&$$&&&&&&&&&&&&$$&&$$&&$$&&$$&&&&&&&&&&&&",
"&&&&&&&&&&&&&&&&&&&&&&&&&&&&&&&&&&&&&&$$&&$$OOOO$$@@$$$$$$$$$$$$$$$$$$$$@@$$$$$$OOOO$$&&$$&&&&&&&&&&&&$$&&$$&&$$&&$$&&&&&&&&&&&&",
"                                              OO$$$$$$$$$$$$$$$$$$$$$$$$$$$$$$$$OO                                              ",
"                                              OO$$$$$$$$$$$$$$$$$$$$$$$$$$$$$$$$OO                                              ",
"                                                $$$$&&&&&&&&&&&&&&&&&&&&$$&&$$$$                                                ",
"                                                $$$$&&&&&&&&&&&&&&&&&&&&$$&&$$$$                                                ",
"XX..  ..XX......XX..  ..XX......XX..  ..XX..                                          ..XX......XX..  ..XX......XX..  ..XX......",
"XX..  ..XX......XX..  ..XX......XX..  ..XX..                                          ..XX......XX..  ..XX......XX..  ..XX......",
"++..  ++++XX..++++..  ++++XX..++++..  ++++XX..                                    ..  ++++XX..++++..  ++++XX..++++..  ++++XX..++",
"++..  ++++XX..++++..  ++++XX..++++..  ++++XX..                                    ..  ++++XX..++++..  ++++XX..++++..  ++++XX..++",
"++..  ++++XXXX++++..  ++++XXXX++++..  ++++XXXX++....  ..XX......XX..  ..XX......XX..  ++++XXXX++++..  ++++XXXX++++..  ++++XXXX++",
"++..  ++++XXXX++++..  ++++XXXX++++..  ++++XXXX++....  ..XX......XX..  ..XX......XX..  ++++XXXX++++..  ++++XXXX++++..  ++++XXXX++",
"++..  ++++XXXX++++..  ++++XXXX++++..  ++++XXXX++++..  ++++XXXX++++..  ++++XXXX++++..  ++++XXXX++++..  ++++XXXX++++..  ++++XXXX++",
"++..  ++++XXXX++++..  ++++XXXX++++..  ++++XXXX++++..  ++++XXXX++++..  ++++XXXX++++..  ++++XXXX++++..  ++++XXXX++++..  ++++XXXX++",
"++XX..++++XXXX++++XX..++++XXXX++++XX..++++XXXX++++XX..++++XXXX++++XX..++++XXXX++++XX..++++XXXX++++XX..++++XXXX++++XX..++++XXXX++",
"++XX..++++XXXX++++XX..++++XXXX++++XX..++++XXXX++++XX..++++XXXX++++XX..++++XXXX++++XX..++++XXXX++++XX..++++XXXX++++XX..++++XXXX++",
"++..  ++++XXXX++++..  ++++XXXX++++..  ++++XXXX++++..  ++++XXXX++++..  ++++XXXX++++..  ++++XXXX++++..  ++++XXXX++++..  ++++XXXX++",
"++..  ++++XXXX++++..  ++++XXXX++++..  ++++XXXX++++..  ++++XXXX++++..  ++++XXXX++++..  ++++XXXX++++..  ++++XXXX++++..  ++++XXXX++",
"++XX..++++XXXX++++XX..++++XXXX++++XX..++++XXXX++++XX..++++XXXX++++XX..++++XXXX++++XX..++++XXXX++++XX..++++XXXX++++XX..++++XXXX++",
"++XX..++++XXXX++++XX..++++XXXX++++XX..++++XXXX++++XX..++++XXXX++++XX..++++XXXX++++XX..++++XXXX++++XX..++++XXXX++++XX..++++XXXX++",
"++XX  ++++XXXX++++XX  ++++XXXX++++XX  ++++XXXX++++XX  ++++XXXX++++XX  ++++XXXX++++XX  ++++XXXX++++XX  ++++XXXX++++XX  ++++XXXX++",
"++XX  ++++XXXX++++XX  ++++XXXX++++XX  ++++XXXX++++XX  ++++XXXX++++XX  ++++XXXX++++XX  ++++XXXX++++XX  ++++XXXX++++XX  ++++XXXX++",
"++XX..++++XXXX++++XX..++++XXXX++++XX..++++XXXX++++XX..++++XXXX++++XX..++++XXXX++++XX..++++XXXX++++XX..++++XXXX++++XX..++++XXXX++",
"++XX..++++XXXX++++XX..++++XXXX++++XX..++++XXXX++++XX..++++XXXX++++XX..++++XXXX++++XX..++++XXXX++++XX..++++XXXX++++XX..++++XXXX++",
"++XX..++++XXXX++++XX..++++XXXX++++XX..++++XXXX++++XX..++++XXXX++++XX..++++XXXX++++XX..++++XXXX++++XX..++++XXXX++++XX..++++XXXX++",
"++XX..++++XXXX++++XX..++++XXXX++++XX..++++XXXX++++XX..++++XXXX++++XX..++++XXXX++++XX..++++XXXX++++XX..++++XXXX++++XX..++++XXXX++",
"++....++++XXXX++++....++XXXXXX++++....++++XXXX++++....++XXXXXX++++....++++XXXX++++....++XXXXXX++++....++++XXXX++++....++XXXXXX++",
"++....++++XXXX++++....++XXXXXX++++....++++XXXX++++....++XXXXXX++++....++++XXXX++++....++XXXXXX++++....++++XXXX++++....++XXXXXX++",
"++XX..++++XXXX++++XX..++++XXXX++++XX..++++XXXX++++XX..++++XXXX++++XX..++++XXXX++++XX..++++XXXX++++XX..++++XXXX++++XX..++++XXXX++",
"++XX..++++XXXX++++XX..++++XXXX++++XX..++++XXXX++++XX..++++XXXX++++XX..++++XXXX++++XX..++++XXXX++++XX..++++XXXX++++XX..++++XXXX++",
"XX..  ++XXXXXX++XX..  ++XXXXXX++XX..  ++XXXXXX++XX..  ++XXXXXX++XX..  ++XXXXXX++XX..  ++XXXXXX++XX..  ++XXXXXX++XX..  ++XXXXXX++",
"XX..  ++XXXXXX++XX..  ++XXXXXX++XX..  ++XXXXXX++XX..  ++XXXXXX++XX..  ++XXXXXX++XX..  ++XXXXXX++XX..  ++XXXXXX++XX..  ++XXXXXX++",
"++....XX++XXXX++++....XX++XXXX++++....XX++XXXX++++....XX++XXXX++++....XX++XXXX++++....XX++XXXX++++....XX++XXXX++++....XX++XXXX++",
"++....XX++XXXX++++....XX++XXXX++++....XX++XXXX++++....XX++XXXX++++....XX++XXXX++++....XX++XXXX++++....XX++XXXX++++....XX++XXXX++",
"XX..  ++XXXX..++XX..  ++XXXX..++XX..  ++XXXX..++XX..  ++XXXX..++XX..  ++XXXX..++XX..  ++XXXX..++XX..  ++XXXX..++XX..  ++XXXX..++",
"XX..  ++XXXX..++XX..  ++XXXX..++XX..  ++XXXX..++XX..  ++XXXX..++XX..  ++XXXX..++XX..  ++XXXX..++XX..  ++XXXX..++XX..  ++XXXX..++",
"XX    XXXX..  XXXX    XXXX..  XXXX    XXXX..  XXXX    XXXX..  XXXX    XXXX..  XXXX    XXXX..  XXXX    XXXX..  XXXX    XXXX..  XX",
"XX    XXXX..  XXXX    XXXX..  XXXX    XXXX..  XXXX    XXXX..  XXXX    XXXX..  XXXX    XXXX..  XXXX    XXXX..  XXXX    XXXX..  XX",
"&&&&&&&&&&&&&&&&&&%%&&&&&&&&%%&&%%&&%%&&%%&&%%%%%%%%%%%%&&%%&&%%&&%%&&&&&&&&&&&&&&&&&&&&&&&&&&&&&&&&&&&&&&&&&&&&&&%%&&&&&&&&%%&&",
"&&&&&&&&&&&&&&&&&&%%&&&&&&&&%%&&%%&&%%&&%%&&%%%%%%%%%%%%&&%%&&%%&&%%&&&&&&&&&&&&&&&&&&&&&&&&&&&&&&&&&&&&&&&&&&&&&&%%&&&&&&&&%%&&",
"$$$$$$$$$$$$$$$$##$$$$$$$$$$$$$$$$$$$$$$$$$$$$$$$$##$$$$$$$$$$$$$$$$$$$$$$$$$$##$$##$$$$$$$$$$$$##$$##$$$$$$$$$$##$$$$$$$$$$$$$$",
"$$$$$$$$$$$$$$$$##$$$$$$$$$$$$$$$$$$$$$$$$$$$$$$$$##$$$$$$$$$$$$$$$$$$$$$$$$$$##$$##$$$$$$$$$$$$##$$##$$$$$$$$$$##$$$$$$$$$$$$$$",
"$$##$$$$$$$$$$##$$$$$$$$$$$$$$$$$$$$$$$$$$$$$$####$$$$$$$$$$$$$$$$$$$$$$$$$$$$$$##$$$$$$$$$$$$$$$$##$$$$$$$$$$##$$$$$$$$$$$$$$$$",
"$$##$$$$$$$$$$##$$$$$$$$$$$$$$$$$$$$$$$$$$$$$$####$$$$$$$$$$$$$$$$$$$$$$$$$$$$$$##$$$$$$$$$$$$$$$$##$$$$$$$$$$##$$$$$$$$$$$$$$$$",
"##$$$$&&##$$$$$$$$$$$$&&##$$$$$$$$$$$$&&##$$$$##$$$$$$&&##$$$$$$$$$$$$&&##$$$$##$$$$$$&&##$$$$$$##$$$$&&##$$$$$$$$$$$$&&##$$$$$$",
"##$$$$&&##$$$$$$$$$$$$&&##$$$$$$$$$$$$&&##$$$$##$$$$$$&&##$$$$$$$$$$$$&&##$$$$##$$$$$$&&##$$$$$$##$$$$&&##$$$$$$$$$$$$&&##$$$$$$",
"$$$$@@####$$$$$$$$$$@@####$$$$$$$$$$@@####$$##$$##$$@@####$$$$$$$$$$@@####$$$$$$$$$$@@####$$$$##$$$$@@####$$$$$$$$$$@@####$$$$##",
"$$$$@@####$$$$$$$$$$@@####$$$$$$$$$$@@####$$##$$##$$@@####$$$$$$$$$$@@####$$$$$$$$$$@@####$$$$##$$$$@@####$$$$$$$$$$@@####$$$$##",
"##$$@@@@$$$$$$$$$$$$@@@@$$$$$$$$$$$$@@@@$$$$$$##$$$$@@@@$$$$$$$$$$$$@@@@$$$$$$$$$$$$@@@@$$$$####$$$$@@@@$$$$$$$$$$$$@@@@$$$$##$$",
"##$$@@@@$$$$$$$$$$$$@@@@$$$$$$$$$$$$@@@@$$$$$$##$$$$@@@@$$$$$$$$$$$$@@@@$$$$$$$$$$$$@@@@$$$$####$$$$@@@@$$$$$$$$$$$$@@@@$$$$##$$",
"$$$$$$$$$$$$$$$$$$$$$$$$$$$$$$$$$$$$$$$$$$$$##$$$$$$$$$$$$$$$$$$$$$$$$$$##$$$$$$$$$$$$$$$$$$##$$$$$$$$$$$$$$$$$$$$$$$$$$$$##$$##",
"$$$$$$$$$$$$$$$$$$$$$$$$$$$$$$$$$$$$$$$$$$$$##$$$$$$$$$$$$$$$$$$$$$$$$$$##$$$$$$$$$$$$$$$$$$##$$$$$$$$$$$$$$$$$$$$$$$$$$$$##$$##",
"@@oooooooooooo@@oo@@oo@@@@@@@@@@@@@@oo@@oo@@..@@..@@........@@..@@@@@@@@@@@@@@@@oo@@oo@@@@oo@@oo@@oooooooooooo@@oo@@oo@@@@@@@@@@",
"@@oooooooooooo@@oo@@oo@@@@@@@@@@@@@@oo@@oo@@..@@..@@........@@..@@@@@@@@@@@@@@@@oo@@oo@@@@oo@@oo@@oooooooooooo@@oo@@oo@@@@@@@@@@"
};
