/* XPM */
static char *f9cbd673594d4dc1f93296cf9855988dhr2h64GMqZgJhhIo[] = {
/* columns rows colors chars-per-pixel */
"128 128 12 1 ",
"  c #000000",
". c #0f0f0f",
"X c #151515",
"o c #1E1918",
"O c #1f1f1f",
"+ c #231512",
"@ c #2A2024",
"# c #2A2E31",
"$ c #34393C",
"% c #765410",
"& c #3E484D",
"* c #495960",
/* pixels */
"                                                                                                                                ",
"                                                                                                                                ",
"$$$$$$$$$$$$$$$$$$$$$$$$$$##$$##$$##$$######..  $$$$$$$$$$$$##$$##$$##$$########    ####$$##$$##$$$$$$$$$$$$$$$$$$$$$$##$$##$$$$",
"$$$$$$$$$$$$$$$$$$$$$$$$$$##$$##$$##$$######..  $$$$$$$$$$$$##$$##$$##$$########    ####$$##$$##$$$$$$$$$$$$$$$$$$$$$$##$$##$$$$",
"############################################..  $$##############################    ############################################",
"############################################..  $$##############################    ############################################",
"############################################..  $$##**####################**####    ############################################",
"############################################..  $$##**####################**####    ############################################",
"################################@@**$$######..  $$@@####################@@######    ####@@**$$##################################",
"################################@@**$$######..  $$@@####################@@######    ####@@**$$##################################",
"################################@@$$$$######..  $$##############################  ..####@@$$$$##################################",
"################################@@$$$$######..  $$##############################  ..####@@$$$$##################################",
"################################@@@@########..  $$##############################..  ####@@@@####################################",
"################################@@@@########..  $$##############################..  ####@@@@####################################",
"############################################..  $$##############################  ..############################################",
"############################################..  $$##############################  ..############################################",
"$$$$$$$$$$$$$$$$$$$$$$$$$$$$$$$$$$$$$$$$$$$$oo..$$##############################..  $$$$$$$$$$$$$$$$$$$$$$$$$$$$$$$$$$$$$$$$$$$$",
"$$$$$$$$$$$$$$$$$$$$$$$$$$$$$$$$$$$$$$$$$$$$oo..$$##############################..  $$$$$$$$$$$$$$$$$$$$$$$$$$$$$$$$$$$$$$$$$$$$",
"############################################..  $$##############################  ..############################################",
"############################################..  $$##############################  ..############################################",
"$$$$$$$$$$$$$$$$$$$$$$$$$$$$$$$$$$$$$$$$$$$$oo..**$$$$$$$$$$$$$$$$$$$$$$$$$$$$$$..  $$$$$$$$$$$$$$$$$$$$$$$$$$$$$$$$$$$$$$$$$$$$",
"$$$$$$$$$$$$$$$$$$$$$$$$$$$$$$$$$$$$$$$$$$$$oo..**$$$$$$$$$$$$$$$$$$$$$$$$$$$$$$..  $$$$$$$$$$$$$$$$$$$$$$$$$$$$$$$$$$$$$$$$$$$$",
"$$$$$$$$$$$$$$$$$$$$$$$$$$$$$$$$$$$$$$$$$$$$..  $$##############################  oo$$$$$$$$$$$$$$$$$$$$$$$$$$$$$$$$$$$$$$$$$$$$",
"$$$$$$$$$$$$$$$$$$$$$$$$$$$$$$$$$$$$$$$$$$$$..  $$##############################  oo$$$$$$$$$$$$$$$$$$$$$$$$$$$$$$$$$$$$$$$$$$$$",
"$$$$$$$$$$$$$$$$$$$$$$$$$$$$$$$$$$$$$$$$$$$$oo..**$$$$$$$$$$$$$$$$$$$$$$$$$$$$$$oo..$$$$$$$$$$$$$$$$$$$$$$$$$$$$$$$$$$$$$$$$$$$$",
"$$$$$$$$$$$$$$$$$$$$$$$$$$$$$$$$$$$$$$$$$$$$oo..**$$$$$$$$$$$$$$$$$$$$$$$$$$$$$$oo..$$$$$$$$$$$$$$$$$$$$$$$$$$$$$$$$$$$$$$$$$$$$",
"$$$$$$$$$$$$$$$$$$$$$$$$$$$$$$$$$$$$$$$$$$$$oo..**$$$$$$$$$$$$$$$$$$$$$$$$$$$$$$..oo$$$$$$$$$$$$$$$$$$$$$$$$$$$$$$$$$$$$$$$$$$$$",
"$$$$$$$$$$$$$$$$$$$$$$$$$$$$$$$$$$$$$$$$$$$$oo..**$$$$$$$$$$$$$$$$$$$$$$$$$$$$$$..oo$$$$$$$$$$$$$$$$$$$$$$$$$$$$$$$$$$$$$$$$$$$$",
"$$$$$$$$$$$$$$$$$$$$$$$$$$$$$$$$$$$$$$$$$$$$oo..**$$$$$$$$$$$$$$$$$$$$$$$$$$$$$$oo..$$$$$$$$$$$$$$$$$$$$$$$$$$$$$$$$$$$$$$$$$$$$",
"$$$$$$$$$$$$$$$$$$$$$$$$$$$$$$$$$$$$$$$$$$$$oo..**$$$$$$$$$$$$$$$$$$$$$$$$$$$$$$oo..$$$$$$$$$$$$$$$$$$$$$$$$$$$$$$$$$$$$$$$$$$$$",
"$$$$$$$$$$$$$$$$$$$$$$$$$$$$$$$$$$$$$$$$$$$$oo..**$$$$$$$$$$$$$$$$$$$$$$$$$$$$$$..oo$$$$$$$$$$$$$$$$$$$$$$$$$$$$$$$$$$$$$$$$$$$$",
"$$$$$$$$$$$$$$$$$$$$$$$$$$$$$$$$$$$$$$$$$$$$oo..**$$$$$$$$$$$$$$$$$$$$$$$$$$$$$$..oo$$$$$$$$$$$$$$$$$$$$$$$$$$$$$$$$$$$$$$$$$$$$",
"$$$$$$$$$$$$$$$$$$$$$$$$$$$$$$$$$$$$$$$$$$$$oo..**$$$$$$$$$$$$$$$$$$$$$$$$$$$$$$oo..$$$$$$$$$$$$$$$$$$$$$$$$$$$$$$$$$$$$$$$$$$$$",
"$$$$$$$$$$$$$$$$$$$$$$$$$$$$$$$$$$$$$$$$$$$$oo..**$$$$$$$$$$$$$$$$$$$$$$$$$$$$$$oo..$$$$$$$$$$$$$$$$$$$$$$$$$$$$$$$$$$$$$$$$$$$$",
"$$$$$$$$$$$$$$$$$$$$$$$$$$$$$$$$$$$$$$$$$$$$....**$$$$$$$$$$$$$$$$$$$$$$$$$$$$$$..oo$$$$$$$$$$$$$$$$$$$$$$$$$$$$$$$$$$$$$$$$$$$$",
"$$$$$$$$$$$$$$$$$$$$$$$$$$$$$$$$$$$$$$$$$$$$....**$$$$$$$$$$$$$$$$$$$$$$$$$$$$$$..oo$$$$$$$$$$$$$$$$$$$$$$$$$$$$$$$$$$$$$$$$$$$$",
"$$$$$$$$$$$$$$$$$$$$$$$$$$$$$$$$$$$$$$$$$$$$oo..**$$$$$$$$$$$$$$$$$$$$$$$$$$$$$$oooo$$$$$$$$$$$$$$$$$$$$$$$$$$$$$$$$$$$$$$$$$$$$",
"$$$$$$$$$$$$$$$$$$$$$$$$$$$$$$$$$$$$$$$$$$$$oo..**$$$$$$$$$$$$$$$$$$$$$$$$$$$$$$oooo$$$$$$$$$$$$$$$$$$$$$$$$$$$$$$$$$$$$$$$$$$$$",
"$$$$$$$$$$$$$$$$$$$$$$$$$$$$$$$$$$$$$$$$$$$$....**$$$$$$$$$$$$$$$$$$$$$$$$$$$$$$..oo$$$$$$$$$$$$$$$$$$$$$$$$$$$$$$$$$$$$$$$$$$$$",
"$$$$$$$$$$$$$$$$$$$$$$$$$$$$$$$$$$$$$$$$$$$$....**$$$$$$$$$$$$$$$$$$$$$$$$$$$$$$..oo$$$$$$$$$$$$$$$$$$$$$$$$$$$$$$$$$$$$$$$$$$$$",
"$$$$$$$$$$$$$$$$$$$$$$$$$$$$$$$$$$$$$$$$$$$$oo..**$$$$$$$$$$$$$$$$$$$$$$$$$$$$$$oooo$$$$$$$$$$$$$$$$$$$$$$$$$$$$$$$$$$$$$$$$$$$$",
"$$$$$$$$$$$$$$$$$$$$$$$$$$$$$$$$$$$$$$$$$$$$oo..**$$$$$$$$$$$$$$$$$$$$$$$$$$$$$$oooo$$$$$$$$$$$$$$$$$$$$$$$$$$$$$$$$$$$$$$$$$$$$",
"$$$$$$$$$$$$$$$$$$$$$$$$$$$$$$$$$$$$$$$$$$$$....$$$$$$$$$$$$$$$$$$$$$$$$$$$$$$$$..oo$$$$$$$$$$$$$$$$$$$$$$$$$$$$$$$$$$$$$$$$$$$$",
"$$$$$$$$$$$$$$$$$$$$$$$$$$$$$$$$$$$$$$$$$$$$....$$$$$$$$$$$$$$$$$$$$$$$$$$$$$$$$..oo$$$$$$$$$$$$$$$$$$$$$$$$$$$$$$$$$$$$$$$$$$$$",
"$$$$$$$$$$$$$$$$$$$$$$$$$$$$$$$$$$$$$$$$$$$$oo..**$$$$$$$$$$$$$$$$$$$$$$$$$$$$$$oooo$$$$$$$$$$$$$$$$$$$$$$$$$$$$$$$$$$$$$$$$$$$$",
"$$$$$$$$$$$$$$$$$$$$$$$$$$$$$$$$$$$$$$$$$$$$oo..**$$$$$$$$$$$$$$$$$$$$$$$$$$$$$$oooo$$$$$$$$$$$$$$$$$$$$$$$$$$$$$$$$$$$$$$$$$$$$",
"$$$$$$$$$$$$$$$$$$$$$$$$$$$$$$$$$$$$$$$$$$$$....$$$$$$$$$$$$$$$$$$$$$$$$$$$$$$$$..oo$$$$$$$$$$$$$$$$$$$$$$$$$$$$$$$$$$$$$$$$$$$$",
"$$$$$$$$$$$$$$$$$$$$$$$$$$$$$$$$$$$$$$$$$$$$....$$$$$$$$$$$$$$$$$$$$$$$$$$$$$$$$..oo$$$$$$$$$$$$$$$$$$$$$$$$$$$$$$$$$$$$$$$$$$$$",
"$$$$$$$$$$$$$$$$$$$$$$$$$$$$$$$$$$$$$$$$$$$$....**$$$$$$$$$$$$$$$$$$$$$$$$$$$$$$..oo$$$$$$$$$$$$$$$$$$$$$$$$$$$$$$$$$$$$$$$$$$$$",
"$$$$$$$$$$$$$$$$$$$$$$$$$$$$$$$$$$$$$$$$$$$$....**$$$$$$$$$$$$$$$$$$$$$$$$$$$$$$..oo$$$$$$$$$$$$$$$$$$$$$$$$$$$$$$$$$$$$$$$$$$$$",
"$$$$$$$$$$$$$$$$$$$$$$$$$$$$$$$$$$$$$$$$$$$$....$$$$$$$$$$$$$$$$$$$$$$$$$$$$$$$$..oo$$$$$$$$$$$$$$$$$$$$$$$$$$$$$$$$$$$$$$$$$$$$",
"$$$$$$$$$$$$$$$$$$$$$$$$$$$$$$$$$$$$$$$$$$$$....$$$$$$$$$$$$$$$$$$$$$$$$$$$$$$$$..oo$$$$$$$$$$$$$$$$$$$$$$$$$$$$$$$$$$$$$$$$$$$$",
"$$$$$$$$$$$$$$$$$$$$$$$$$$$$$$$$$$$$$$$$$$$$....**$$$$$$$$$$$$$$$$$$$$$$$$$$$$$$..oo$$$$$$$$$$$$$$$$$$$$$$$$$$$$$$$$$$$$$$$$$$$$",
"$$$$$$$$$$$$$$$$$$$$$$$$$$$$$$$$$$$$$$$$$$$$....**$$$$$$$$$$$$$$$$$$$$$$$$$$$$$$..oo$$$$$$$$$$$$$$$$$$$$$$$$$$$$$$$$$$$$$$$$$$$$",
"$$$$$$$$$$$$$$$$$$$$$$$$$$$$$$$$$$$$$$$$$$$$....$$$$$$$$$$$$$$$$$$$$$$$$$$$$$$$$oooo$$$$$$$$$$$$$$$$$$$$$$$$$$$$$$$$$$$$$$$$$$$$",
"$$$$$$$$$$$$$$$$$$$$$$$$$$$$$$$$$$$$$$$$$$$$....$$$$$$$$$$$$$$$$$$$$$$$$$$$$$$$$oooo$$$$$$$$$$$$$$$$$$$$$$$$$$$$$$$$$$$$$$$$$$$$",
"%%%%%%%%%%%%%%%%%%%%%%%%%%%%%%%%%%%%%%%%%%$$....$$$$$$$$$$$$$$$$$$$$$$$$$$$$$$$$..oo$$%%%%%%%%%%%%%%%%%%%%%%%%%%%%%%%%%%%%%%%%%%",
"%%%%%%%%%%%%%%%%%%%%%%%%%%%%%%%%%%%%%%%%%%$$....$$$$$$$$$$$$$$$$$$$$$$$$$$$$$$$$..oo$$%%%%%%%%%%%%%%%%%%%%%%%%%%%%%%%%%%%%%%%%%%",
"%%%%%%%%%%%%%%%%%%%%%%%%%%%%%%%%%%%%%%%%%%$$....$$$$$$$$$$$$$$$$$$$$$$$$$$$$$$$$oooo$$%%%%%%%%%%%%%%%%%%%%%%%%%%%%%%%%%%%%%%%%%%",
"%%%%%%%%%%%%%%%%%%%%%%%%%%%%%%%%%%%%%%%%%%$$....$$$$$$$$$$$$$$$$$$$$$$$$$$$$$$$$oooo$$%%%%%%%%%%%%%%%%%%%%%%%%%%%%%%%%%%%%%%%%%%",
"%%%%%%%%%%%%%%%%%%%%%%%%%%%%%%%%%%%%%%%%%%$$....$$%%%%%%%%%%%%%%%%%%%%%%%%%%%%$$..oo$$%%%%%%%%%%%%%%%%%%%%%%%%%%%%%%%%%%%%%%%%%%",
"%%%%%%%%%%%%%%%%%%%%%%%%%%%%%%%%%%%%%%%%%%$$....$$%%%%%%%%%%%%%%%%%%%%%%%%%%%%$$..oo$$%%%%%%%%%%%%%%%%%%%%%%%%%%%%%%%%%%%%%%%%%%",
"%%%%%%%%%%%%%%%%%%%%%%%%%%%%%%%%%%%%%%%%%%$$..oo$$%%%%%%%%%%%%%%%%%%%%%%%%%%%%$$oooo$$%%%%%%%%%%%%%%%%%%%%%%%%%%%%%%%%%%%%%%%%%%",
"%%%%%%%%%%%%%%%%%%%%%%%%%%%%%%%%%%%%%%%%%%$$..oo$$%%%%%%%%%%%%%%%%%%%%%%%%%%%%$$oooo$$%%%%%%%%%%%%%%%%%%%%%%%%%%%%%%%%%%%%%%%%%%",
"$$$$$$$$$$$$$$$$$$$$$$$$$$$$$$$$$$$$$$$$$$$$oo..$$%%%%%%%%%%%%%%%%%%%%%%%%%%%%$$oooo$$$$$$$$$$$$$$$$$$$$$$$$$$$$$$$$$$$$$$$$$$$$",
"$$$$$$$$$$$$$$$$$$$$$$$$$$$$$$$$$$$$$$$$$$$$oo..$$%%%%%%%%%%%%%%%%%%%%%%%%%%%%$$oooo$$$$$$$$$$$$$$$$$$$$$$$$$$$$$$$$$$$$$$$$$$$$",
"$$$$$$$$$$$$$$$$$$$$$$$$$$$$$$$$@@**##$$$$$$..oo$$%%%%%%%%%%%%%%%%%%%%%%%%%%%%$$oooo$$$$@@**##$$$$$$$$$$$$$$$$$$$$$$$$$$$$$$$$$$",
"$$$$$$$$$$$$$$$$$$$$$$$$$$$$$$$$@@**##$$$$$$..oo$$%%%%%%%%%%%%%%%%%%%%%%%%%%%%$$oooo$$$$@@**##$$$$$$$$$$$$$$$$$$$$$$$$$$$$$$$$$$",
"$$$$$$$$$$$$$$$$$$$$$$$$$$$$$$$$@@####$$$$$$oo..$$$$$$$$$$$$$$$$$$$$$$$$$$$$$$$$oooo$$$$@@####$$$$$$$$$$$$$$$$$$$$$$$$$$$$$$$$$$",
"$$$$$$$$$$$$$$$$$$$$$$$$$$$$$$$$@@####$$$$$$oo..$$$$$$$$$$$$$$$$$$$$$$$$$$$$$$$$oooo$$$$@@####$$$$$$$$$$$$$$$$$$$$$$$$$$$$$$$$$$",
"$$$$$$$$$$$$$$$$$$$$$$$$$$$$$$$$@@@@$$$$$$$$..oo$$$$$$$$$$$$$$$$$$$$$$$$$$$$$$$$oooo$$$$@@@@$$$$$$$$$$$$$$$$$$$$$$$$$$$$$$$$$$$$",
"$$$$$$$$$$$$$$$$$$$$$$$$$$$$$$$$@@@@$$$$$$$$..oo$$$$$$$$$$$$$$$$$$$$$$$$$$$$$$$$oooo$$$$@@@@$$$$$$$$$$$$$$$$$$$$$$$$$$$$$$$$$$$$",
"$$$$$$$$$$$$$$$$$$$$$$$$$$$$$$$$$$$$$$$$$$$$oooo$$$$**$$$$$$$$$$$$$$$$$$$$**$$$$oooo$$$$$$$$$$$$$$$$$$$$$$$$$$$$$$$$$$$$$$$$$$$$",
"$$$$$$$$$$$$$$$$$$$$$$$$$$$$$$$$$$$$$$$$$$$$oooo$$$$**$$$$$$$$$$$$$$$$$$$$**$$$$oooo$$$$$$$$$$$$$$$$$$$$$$$$$$$$$$$$$$$$$$$$$$$$",
"**************************************$$**$$oooo$$@@$$$$$$$$$$$$$$$$$$$$@@$$$$$$oooo$$**$$************$$**$$**$$**$$************",
"**************************************$$**$$oooo$$@@$$$$$$$$$$$$$$$$$$$$@@$$$$$$oooo$$**$$************$$**$$**$$**$$************",
"                                              oo$$$$$$$$$$$$$$$$$$$$$$$$$$$$$$$$oo                                              ",
"                                              oo$$$$$$$$$$$$$$$$$$$$$$$$$$$$$$$$oo                                              ",
"                                                $$$$********************$$**$$$$                                                ",
"                                                $$$$********************$$**$$$$                                                ",
"XX..  ..XX......XX..  ..XX......XX..  ..XX..                                          ..XX......XX..  ..XX......XX..  ..XX......",
"XX..  ..XX......XX..  ..XX......XX..  ..XX..                                          ..XX......XX..  ..XX......XX..  ..XX......",
"OO..  OOOOXX..OOOO..  OOOOXX..OOOO..  OOOOXX..                                    ..  OOOOXX..OOOO..  OOOOXX..OOOO..  OOOOXX..OO",
"OO..  OOOOXX..OOOO..  OOOOXX..OOOO..  OOOOXX..                                    ..  OOOOXX..OOOO..  OOOOXX..OOOO..  OOOOXX..OO",
"OO..  OOOOXXXXOOOO..  OOOOXXXXOOOO..  OOOOXXXXOO....  ..XX......XX..  ..XX......XX..  OOOOXXXXOOOO..  OOOOXXXXOOOO..  OOOOXXXXOO",
"OO..  OOOOXXXXOOOO..  OOOOXXXXOOOO..  OOOOXXXXOO....  ..XX......XX..  ..XX......XX..  OOOOXXXXOOOO..  OOOOXXXXOOOO..  OOOOXXXXOO",
"OO..  OOOOXXXXOOOO..  OOOOXXXXOOOO..  OOOOXXXXOOOO..  OOOOXXXXOOOO..  OOOOXXXXOOOO..  OOOOXXXXOOOO..  OOOOXXXXOOOO..  OOOOXXXXOO",
"OO..  OOOOXXXXOOOO..  OOOOXXXXOOOO..  OOOOXXXXOOOO..  OOOOXXXXOOOO..  OOOOXXXXOOOO..  OOOOXXXXOOOO..  OOOOXXXXOOOO..  OOOOXXXXOO",
"OOXX..OOOOXXXXOOOOXX..OOOOXXXXOOOOXX..OOOOXXXXOOOOXX..OOOOXXXXOOOOXX..OOOOXXXXOOOOXX..OOOOXXXXOOOOXX..OOOOXXXXOOOOXX..OOOOXXXXOO",
"OOXX..OOOOXXXXOOOOXX..OOOOXXXXOOOOXX..OOOOXXXXOOOOXX..OOOOXXXXOOOOXX..OOOOXXXXOOOOXX..OOOOXXXXOOOOXX..OOOOXXXXOOOOXX..OOOOXXXXOO",
"OO..  OOOOXXXXOOOO..  OOOOXXXXOOOO..  OOOOXXXXOOOO..  OOOOXXXXOOOO..  OOOOXXXXOOOO..  OOOOXXXXOOOO..  OOOOXXXXOOOO..  OOOOXXXXOO",
"OO..  OOOOXXXXOOOO..  OOOOXXXXOOOO..  OOOOXXXXOOOO..  OOOOXXXXOOOO..  OOOOXXXXOOOO..  OOOOXXXXOOOO..  OOOOXXXXOOOO..  OOOOXXXXOO",
"OOXX..OOOOXXXXOOOOXX..OOOOXXXXOOOOXX..OOOOXXXXOOOOXX..OOOOXXXXOOOOXX..OOOOXXXXOOOOXX..OOOOXXXXOOOOXX..OOOOXXXXOOOOXX..OOOOXXXXOO",
"OOXX..OOOOXXXXOOOOXX..OOOOXXXXOOOOXX..OOOOXXXXOOOOXX..OOOOXXXXOOOOXX..OOOOXXXXOOOOXX..OOOOXXXXOOOOXX..OOOOXXXXOOOOXX..OOOOXXXXOO",
"OOXX  OOOOXXXXOOOOXX  OOOOXXXXOOOOXX  OOOOXXXXOOOOXX  OOOOXXXXOOOOXX  OOOOXXXXOOOOXX  OOOOXXXXOOOOXX  OOOOXXXXOOOOXX  OOOOXXXXOO",
"OOXX  OOOOXXXXOOOOXX  OOOOXXXXOOOOXX  OOOOXXXXOOOOXX  OOOOXXXXOOOOXX  OOOOXXXXOOOOXX  OOOOXXXXOOOOXX  OOOOXXXXOOOOXX  OOOOXXXXOO",
"OOXX..OOOOXXXXOOOOXX..OOOOXXXXOOOOXX..OOOOXXXXOOOOXX..OOOOXXXXOOOOXX..OOOOXXXXOOOOXX..OOOOXXXXOOOOXX..OOOOXXXXOOOOXX..OOOOXXXXOO",
"OOXX..OOOOXXXXOOOOXX..OOOOXXXXOOOOXX..OOOOXXXXOOOOXX..OOOOXXXXOOOOXX..OOOOXXXXOOOOXX..OOOOXXXXOOOOXX..OOOOXXXXOOOOXX..OOOOXXXXOO",
"OOXX..OOOOXXXXOOOOXX..OOOOXXXXOOOOXX..OOOOXXXXOOOOXX..OOOOXXXXOOOOXX..OOOOXXXXOOOOXX..OOOOXXXXOOOOXX..OOOOXXXXOOOOXX..OOOOXXXXOO",
"OOXX..OOOOXXXXOOOOXX..OOOOXXXXOOOOXX..OOOOXXXXOOOOXX..OOOOXXXXOOOOXX..OOOOXXXXOOOOXX..OOOOXXXXOOOOXX..OOOOXXXXOOOOXX..OOOOXXXXOO",
"OO....OOOOXXXXOOOO....OOXXXXXXOOOO....OOOOXXXXOOOO....OOXXXXXXOOOO....OOOOXXXXOOOO....OOXXXXXXOOOO....OOOOXXXXOOOO....OOXXXXXXOO",
"OO....OOOOXXXXOOOO....OOXXXXXXOOOO....OOOOXXXXOOOO....OOXXXXXXOOOO....OOOOXXXXOOOO....OOXXXXXXOOOO....OOOOXXXXOOOO....OOXXXXXXOO",
"OOXX..OOOOXXXXOOOOXX..OOOOXXXXOOOOXX..OOOOXXXXOOOOXX..OOOOXXXXOOOOXX..OOOOXXXXOOOOXX..OOOOXXXXOOOOXX..OOOOXXXXOOOOXX..OOOOXXXXOO",
"OOXX..OOOOXXXXOOOOXX..OOOOXXXXOOOOXX..OOOOXXXXOOOOXX..OOOOXXXXOOOOXX..OOOOXXXXOOOOXX..OOOOXXXXOOOOXX..OOOOXXXXOOOOXX..OOOOXXXXOO",
"XX..  OOXXXXXXOOXX..  OOXXXXXXOOXX..  OOXXXXXXOOXX..  OOXXXXXXOOXX..  OOXXXXXXOOXX..  OOXXXXXXOOXX..  OOXXXXXXOOXX..  OOXXXXXXOO",
"XX..  OOXXXXXXOOXX..  OOXXXXXXOOXX..  OOXXXXXXOOXX..  OOXXXXXXOOXX..  OOXXXXXXOOXX..  OOXXXXXXOOXX..  OOXXXXXXOOXX..  OOXXXXXXOO",
"OO....XXOOXXXXOOOO....XXOOXXXXOOOO....XXOOXXXXOOOO....XXOOXXXXOOOO....XXOOXXXXOOOO....XXOOXXXXOOOO....XXOOXXXXOOOO....XXOOXXXXOO",
"OO....XXOOXXXXOOOO....XXOOXXXXOOOO....XXOOXXXXOOOO....XXOOXXXXOOOO....XXOOXXXXOOOO....XXOOXXXXOOOO....XXOOXXXXOOOO....XXOOXXXXOO",
"XX..  OOXXXX..OOXX..  OOXXXX..OOXX..  OOXXXX..OOXX..  OOXXXX..OOXX..  OOXXXX..OOXX..  OOXXXX..OOXX..  OOXXXX..OOXX..  OOXXXX..OO",
"XX..  OOXXXX..OOXX..  OOXXXX..OOXX..  OOXXXX..OOXX..  OOXXXX..OOXX..  OOXXXX..OOXX..  OOXXXX..OOXX..  OOXXXX..OOXX..  OOXXXX..OO",
"XX    XXXX..  XXXX    XXXX..  XXXX    XXXX..  XXXX    XXXX..  XXXX    XXXX..  XXXX    XXXX..  XXXX    XXXX..  XXXX    XXXX..  XX",
"XX    XXXX..  XXXX    XXXX..  XXXX    XXXX..  XXXX    XXXX..  XXXX    XXXX..  XXXX    XXXX..  XXXX    XXXX..  XXXX    XXXX..  XX",
"******************&&********&&**&&**&&**&&**&&&&&&&&&&&&**&&**&&**&&**********************************************&&********&&**",
"******************&&********&&**&&**&&**&&**&&&&&&&&&&&&**&&**&&**&&**********************************************&&********&&**",
"$$$$$$$$$$$$$$$$##$$$$$$$$$$$$$$$$$$$$$$$$$$$$$$$$##$$$$$$$$$$$$$$$$$$$$$$$$$$##$$##$$$$$$$$$$$$##$$##$$$$$$$$$$##$$$$$$$$$$$$$$",
"$$$$$$$$$$$$$$$$##$$$$$$$$$$$$$$$$$$$$$$$$$$$$$$$$##$$$$$$$$$$$$$$$$$$$$$$$$$$##$$##$$$$$$$$$$$$##$$##$$$$$$$$$$##$$$$$$$$$$$$$$",
"$$##$$$$$$$$$$##$$$$$$$$$$$$$$$$$$$$$$$$$$$$$$####$$$$$$$$$$$$$$$$$$$$$$$$$$$$$$##$$$$$$$$$$$$$$$$##$$$$$$$$$$##$$$$$$$$$$$$$$$$",
"$$##$$$$$$$$$$##$$$$$$$$$$$$$$$$$$$$$$$$$$$$$$####$$$$$$$$$$$$$$$$$$$$$$$$$$$$$$##$$$$$$$$$$$$$$$$##$$$$$$$$$$##$$$$$$$$$$$$$$$$",
"##$$$$**##$$$$$$$$$$$$**##$$$$$$$$$$$$**##$$$$##$$$$$$**##$$$$$$$$$$$$**##$$$$##$$$$$$**##$$$$$$##$$$$**##$$$$$$$$$$$$**##$$$$$$",
"##$$$$**##$$$$$$$$$$$$**##$$$$$$$$$$$$**##$$$$##$$$$$$**##$$$$$$$$$$$$**##$$$$##$$$$$$**##$$$$$$##$$$$**##$$$$$$$$$$$$**##$$$$$$",
"$$$$@@####$$$$$$$$$$@@####$$$$$$$$$$@@####$$##$$##$$@@####$$$$$$$$$$@@####$$$$$$$$$$@@####$$$$##$$$$@@####$$$$$$$$$$@@####$$$$##",
"$$$$@@####$$$$$$$$$$@@####$$$$$$$$$$@@####$$##$$##$$@@####$$$$$$$$$$@@####$$$$$$$$$$@@####$$$$##$$$$@@####$$$$$$$$$$@@####$$$$##",
"##$$@@@@$$$$$$$$$$$$@@@@$$$$$$$$$$$$@@@@$$$$$$##$$$$@@@@$$$$$$$$$$$$@@@@$$$$$$$$$$$$@@@@$$$$####$$$$@@@@$$$$$$$$$$$$@@@@$$$$##$$",
"##$$@@@@$$$$$$$$$$$$@@@@$$$$$$$$$$$$@@@@$$$$$$##$$$$@@@@$$$$$$$$$$$$@@@@$$$$$$$$$$$$@@@@$$$$####$$$$@@@@$$$$$$$$$$$$@@@@$$$$##$$",
"$$$$$$$$$$$$$$$$$$$$$$$$$$$$$$$$$$$$$$$$$$$$##$$$$$$$$$$$$$$$$$$$$$$$$$$##$$$$$$$$$$$$$$$$$$##$$$$$$$$$$$$$$$$$$$$$$$$$$$$##$$##",
"$$$$$$$$$$$$$$$$$$$$$$$$$$$$$$$$$$$$$$$$$$$$##$$$$$$$$$$$$$$$$$$$$$$$$$$##$$$$$$$$$$$$$$$$$$##$$$$$$$$$$$$$$$$$$$$$$$$$$$$##$$##",
"@@++++++++++++@@++@@++@@@@@@@@@@@@@@++@@++@@..@@..@@........@@..@@@@@@@@@@@@@@@@++@@++@@@@++@@++@@++++++++++++@@++@@++@@@@@@@@@@",
"@@++++++++++++@@++@@++@@@@@@@@@@@@@@++@@++@@..@@..@@........@@..@@@@@@@@@@@@@@@@++@@++@@@@++@@++@@++++++++++++@@++@@++@@@@@@@@@@"
};
