/* XPM */
static char *_fcaa77d2f2a475097955b4acaf52d4d0teBCTWer1RFSdGL[] = {
/* columns rows colors chars-per-pixel */
"128 128 4 1 ",
"  c #181425",
". c #262B44",
"X c #3A4466",
"o c #5A6988",
/* pixels */
"  ... .XXXXX....  ... .XXXXX....  ... .XXXXX....  ... .XXXXX....  ... .XXXXX....  ... .XXXXX....  ... .XXXXX....  ... .XXXXX....",
"ooooX .XXXXX.XooooooX .XXXXX.XooooooX .XXXXX.XooooooX .XXXXX.XooooooX .XXXXX.XooooooX .XXXXX.XooooooX .XXXXX.XooooooX .XXXXX.Xoo",
"XXXXXX .XXX..oXXXXXXXX .XXX..oXXXXXXXX .XXX..oXXXXXXXX .XXX..oXXXXXXXX .XXX..oXXXXXXXX .XXX..oXXXXXXXX .XXX..oXXXXXXXX .XXX..oXX",
"XXXXXX. ... .XXXXXXXXX. ... .XXXXXXXXX. ... .XXXXXXXXX. ... .XXXXXXXXX. ... .XXXXXXXXX. ... .XXXXXXXXX. ... .XXXXXXXXX. ... .XXX",
"XXXXXX.XoooX .XXXXXXXX.XoooX .XXXXXXXX.XoooX .XXXXXXXX.XoooX .XXXXXXXX.XoooX .XXXXXXXX.XoooX .XXXXXXXX.XoooX .XXXXXXXX.XoooX .XX",
"XXXXXX.oXXXXX .XXXXXXX.oXXXXX .XXXXXXX.oXXXXX .XXXXXXX.oXXXXX .XXXXXXX.oXXXXX .XXXXXXX.oXXXXX .XXXXXXX.oXXXXX .XXXXXXX.oXXXXX .X",
"..XXX..XXXXXX.  ..XXX..XXXXXX.  ..XXX..XXXXXX.  ..XXX..XXXXXX.  ..XXX..XXXXXX.  ..XXX..XXXXXX.  ..XXX..XXXXXX.  ..XXX..XXXXXX.  ",
"oX... .XXXXXX. ooX... .XXXXXX. ooX... .XXXXXX. ooX... .XXXXXX. ooX... .XXXXXX. ooX... .XXXXXX. ooX... .XXXXXX. ooX... .XXXXXX. o",
"XXX   ...XXX..oXXXX   ...XXX..oXXXX   ...XXX..oXXXX   ...XXX..oXXXX   ...XXX..oXXXX   ...XXX..oXXXX   ...XXX..oXXXX   ...XXX..oX",
"XXX. .XXX.... XXXXX. .XXX.... XXXXX. .XXX.... XXXXX. .XXX.... XXXXX. .XXX.... XXXXX. .XXX.... XXXXX. .XXX.... XXXXX. .XXX.... XX",
"XXX..XoooXX.. XXXXX..XoooXX.. XXXXX..XoooXX.. XXXXX..XoooXX.. XXXXX..XoooXX.. XXXXX..XoooXX.. XXXXX..XoooXX.. XXXXX..XoooXX.. XX",
"XXX.XoXXXooX. XXXXX.XoXXXooX. XXXXX.XoXXXooX. XXXXX.XoXXXooX. XXXXX.XoXXXooX. XXXXX.XoXXXooX. XXXXX.XoXXXooX. XXXXX.XoXXXooX. XX",
"XXX.XXXXXXXoX XXXXX.XXXXXXXoX XXXXX.XXXXXXXoX XXXXX.XXXXXXXoX XXXXX.XXXXXXXoX XXXXX.XXXXXXXoX XXXXX.XXXXXXXoX XXXXX.XXXXXXXoX XX",
"XXX.XXXXXXXXX XXXXX.XXXXXXXXX XXXXX.XXXXXXXXX XXXXX.XXXXXXXXX XXXXX.XXXXXXXXX XXXXX.XXXXXXXXX XXXXX.XXXXXXXXX XXXXX.XXXXXXXXX XX",
"XX. XXXXXXXXX .XXX. XXXXXXXXX .XXX. XXXXXXXXX .XXX. XXXXXXXXX .XXX. XXXXXXXXX .XXX. XXXXXXXXX .XXX. XXXXXXXXX .XXX. XXXXXXXXX .X",
"..  XXXXXXXXX. ...  XXXXXXXXX. ...  XXXXXXXXX. ...  XXXXXXXXX. ...  XXXXXXXXX. ...  XXXXXXXXX. ...  XXXXXXXXX. ...  XXXXXXXXX. .",
"  ... .XXXXX....  ... .XXXXX....  ... .XXXXX....  ... .XXXXX....  ... .XXXXX....  ... .XXXXX....  ... .XXXXX....  ... .XXXXX....",
"ooooX .XXXXX.XooooooX .XXXXX.XooooooX .XXXXX.XooooooX .XXXXX.XooooooX .XXXXX.XooooooX .XXXXX.XooooooX .XXXXX.XooooooX .XXXXX.Xoo",
"XXXXXX .XXX..oXXXXXXXX .XXX..oXXXXXXXX .XXX..oXXXXXXXX .XXX..oXXXXXXXX .XXX..oXXXXXXXX .XXX..oXXXXXXXX .XXX..oXXXXXXXX .XXX..oXX",
"XXXXXX. ... .XXXXXXXXX. ... .XXXXXXXXX. ... .XXXXXXXXX. ... .XXXXXXXXX. ... .XXXXXXXXX. ... .XXXXXXXXX. ... .XXXXXXXXX. ... .XXX",
"XXXXXX.XoooX .XXXXXXXX.XoooX .XXXXXXXX.XoooX .XXXXXXXX.XoooX .XXXXXXXX.XoooX .XXXXXXXX.XoooX .XXXXXXXX.XoooX .XXXXXXXX.XoooX .XX",
"XXXXXX.oXXXXX .XXXXXXX.oXXXXX .XXXXXXX.oXXXXX .XXXXXXX.oXXXXX .XXXXXXX.oXXXXX .XXXXXXX.oXXXXX .XXXXXXX.oXXXXX .XXXXXXX.oXXXXX .X",
"..XXX..XXXXXX.  ..XXX..XXXXXX.  ..XXX..XXXXXX.  ..XXX..XXXXXX.  ..XXX..XXXXXX.  ..XXX..XXXXXX.  ..XXX..XXXXXX.  ..XXX..XXXXXX.  ",
"oX... .XXXXXX. ooX... .XXXXXX. ooX... .XXXXXX. ooX... .XXXXXX. ooX... .XXXXXX. ooX... .XXXXXX. ooX... .XXXXXX. ooX... .XXXXXX. o",
"XXX   ...XXX..oXXXX   ...XXX..oXXXX   ...XXX..oXXXX   ...XXX..oXXXX   ...XXX..oXXXX   ...XXX..oXXXX   ...XXX..oXXXX   ...XXX..oX",
"XXX. .XXX.... XXXXX. .XXX.... XXXXX. .XXX.... XXXXX. .XXX.... XXXXX. .XXX.... XXXXX. .XXX.... XXXXX. .XXX.... XXXXX. .XXX.... XX",
"XXX..XoooXX.. XXXXX..XoooXX.. XXXXX..XoooXX.. XXXXX..XoooXX.. XXXXX..XoooXX.. XXXXX..XoooXX.. XXXXX..XoooXX.. XXXXX..XoooXX.. XX",
"XXX.XoXXXooX. XXXXX.XoXXXooX. XXXXX.XoXXXooX. XXXXX.XoXXXooX. XXXXX.XoXXXooX. XXXXX.XoXXXooX. XXXXX.XoXXXooX. XXXXX.XoXXXooX. XX",
"XXX.XXXXXXXoX XXXXX.XXXXXXXoX XXXXX.XXXXXXXoX XXXXX.XXXXXXXoX XXXXX.XXXXXXXoX XXXXX.XXXXXXXoX XXXXX.XXXXXXXoX XXXXX.XXXXXXXoX XX",
"XXX.XXXXXXXXX XXXXX.XXXXXXXXX XXXXX.XXXXXXXXX XXXXX.XXXXXXXXX XXXXX.XXXXXXXXX XXXXX.XXXXXXXXX XXXXX.XXXXXXXXX XXXXX.XXXXXXXXX XX",
"XX. XXXXXXXXX .XXX. XXXXXXXXX .XXX. XXXXXXXXX .XXX. XXXXXXXXX .XXX. XXXXXXXXX .XXX. XXXXXXXXX .XXX. XXXXXXXXX .XXX. XXXXXXXXX .X",
"..  XXXXXXXXX. ...  XXXXXXXXX. ...  XXXXXXXXX. ...  XXXXXXXXX. ...  XXXXXXXXX. ...  XXXXXXXXX. ...  XXXXXXXXX. ...  XXXXXXXXX. .",
"  ... .XXXXX....  ... .XXXXX....  ... .XXXXX....  ... .XXXXX....  ... .XXXXX....  ... .XXXXX....  ... .XXXXX....  ... .XXXXX....",
"ooooX .XXXXX.XooooooX .XXXXX.XooooooX .XXXXX.XooooooX .XXXXX.XooooooX .XXXXX.XooooooX .XXXXX.XooooooX .XXXXX.XooooooX .XXXXX.Xoo",
"XXXXXX .XXX..oXXXXXXXX .XXX..oXXXXXXXX .XXX..oXXXXXXXX .XXX..oXXXXXXXX .XXX..oXXXXXXXX .XXX..oXXXXXXXX .XXX..oXXXXXXXX .XXX..oXX",
"XXXXXX. ... .XXXXXXXXX. ... .XXXXXXXXX. ... .XXXXXXXXX. ... .XXXXXXXXX. ... .XXXXXXXXX. ... .XXXXXXXXX. ... .XXXXXXXXX. ... .XXX",
"XXXXXX.XoooX .XXXXXXXX.XoooX .XXXXXXXX.XoooX .XXXXXXXX.XoooX .XXXXXXXX.XoooX .XXXXXXXX.XoooX .XXXXXXXX.XoooX .XXXXXXXX.XoooX .XX",
"XXXXXX.oXXXXX .XXXXXXX.oXXXXX .XXXXXXX.oXXXXX .XXXXXXX.oXXXXX .XXXXXXX.oXXXXX .XXXXXXX.oXXXXX .XXXXXXX.oXXXXX .XXXXXXX.oXXXXX .X",
"..XXX..XXXXXX.  ..XXX..XXXXXX.  ..XXX..XXXXXX.  ..XXX..XXXXXX.  ..XXX..XXXXXX.  ..XXX..XXXXXX.  ..XXX..XXXXXX.  ..XXX..XXXXXX.  ",
"oX... .XXXXXX. ooX... .XXXXXX. ooX... .XXXXXX. ooX... .XXXXXX. ooX... .XXXXXX. ooX... .XXXXXX. ooX... .XXXXXX. ooX... .XXXXXX. o",
"XXX   ...XXX..oXXXX   ...XXX..oXXXX   ...XXX..oXXXX   ...XXX..oXXXX   ...XXX..oXXXX   ...XXX..oXXXX   ...XXX..oXXXX   ...XXX..oX",
"XXX. .XXX.... XXXXX. .XXX.... XXXXX. .XXX.... XXXXX. .XXX.... XXXXX. .XXX.... XXXXX. .XXX.... XXXXX. .XXX.... XXXXX. .XXX.... XX",
"XXX..XoooXX.. XXXXX..XoooXX.. XXXXX..XoooXX.. XXXXX..XoooXX.. XXXXX..XoooXX.. XXXXX..XoooXX.. XXXXX..XoooXX.. XXXXX..XoooXX.. XX",
"XXX.XoXXXooX. XXXXX.XoXXXooX. XXXXX.XoXXXooX. XXXXX.XoXXXooX. XXXXX.XoXXXooX. XXXXX.XoXXXooX. XXXXX.XoXXXooX. XXXXX.XoXXXooX. XX",
"XXX.XXXXXXXoX XXXXX.XXXXXXXoX XXXXX.XXXXXXXoX XXXXX.XXXXXXXoX XXXXX.XXXXXXXoX XXXXX.XXXXXXXoX XXXXX.XXXXXXXoX XXXXX.XXXXXXXoX XX",
"XXX.XXXXXXXXX XXXXX.XXXXXXXXX XXXXX.XXXXXXXXX XXXXX.XXXXXXXXX XXXXX.XXXXXXXXX XXXXX.XXXXXXXXX XXXXX.XXXXXXXXX XXXXX.XXXXXXXXX XX",
"XX. XXXXXXXXX .XXX. XXXXXXXXX .XXX. XXXXXXXXX .XXX. XXXXXXXXX .XXX. XXXXXXXXX .XXX. XXXXXXXXX .XXX. XXXXXXXXX .XXX. XXXXXXXXX .X",
"..  XXXXXXXXX. ...  XXXXXXXXX. ...  XXXXXXXXX. ...  XXXXXXXXX. ...  XXXXXXXXX. ...  XXXXXXXXX. ...  XXXXXXXXX. ...  XXXXXXXXX. .",
"  ... .XXXXX....  ... .XXXXX....  ... .XXXXX....  ... .XXXXX....  ... .XXXXX....  ... .XXXXX....  ... .XXXXX....  ... .XXXXX....",
"ooooX .XXXXX.XooooooX .XXXXX.XooooooX .XXXXX.XooooooX .XXXXX.XooooooX .XXXXX.XooooooX .XXXXX.XooooooX .XXXXX.XooooooX .XXXXX.Xoo",
"XXXXXX .XXX..oXXXXXXXX .XXX..oXXXXXXXX .XXX..oXXXXXXXX .XXX..oXXXXXXXX .XXX..oXXXXXXXX .XXX..oXXXXXXXX .XXX..oXXXXXXXX .XXX..oXX",
"XXXXXX. ... .XXXXXXXXX. ... .XXXXXXXXX. ... .XXXXXXXXX. ... .XXXXXXXXX. ... .XXXXXXXXX. ... .XXXXXXXXX. ... .XXXXXXXXX. ... .XXX",
"XXXXXX.XoooX .XXXXXXXX.XoooX .XXXXXXXX.XoooX .XXXXXXXX.XoooX .XXXXXXXX.XoooX .XXXXXXXX.XoooX .XXXXXXXX.XoooX .XXXXXXXX.XoooX .XX",
"XXXXXX.oXXXXX .XXXXXXX.oXXXXX .XXXXXXX.oXXXXX .XXXXXXX.oXXXXX .XXXXXXX.oXXXXX .XXXXXXX.oXXXXX .XXXXXXX.oXXXXX .XXXXXXX.oXXXXX .X",
"..XXX..XXXXXX.  ..XXX..XXXXXX.  ..XXX..XXXXXX.  ..XXX..XXXXXX.  ..XXX..XXXXXX.  ..XXX..XXXXXX.  ..XXX..XXXXXX.  ..XXX..XXXXXX.  ",
"oX... .XXXXXX. ooX... .XXXXXX. ooX... .XXXXXX. ooX... .XXXXXX. ooX... .XXXXXX. ooX... .XXXXXX. ooX... .XXXXXX. ooX... .XXXXXX. o",
"XXX   ...XXX..oXXXX   ...XXX..oXXXX   ...XXX..oXXXX   ...XXX..oXXXX   ...XXX..oXXXX   ...XXX..oXXXX   ...XXX..oXXXX   ...XXX..oX",
"XXX. .XXX.... XXXXX. .XXX.... XXXXX. .XXX.... XXXXX. .XXX.... XXXXX. .XXX.... XXXXX. .XXX.... XXXXX. .XXX.... XXXXX. .XXX.... XX",
"XXX..XoooXX.. XXXXX..XoooXX.. XXXXX..XoooXX.. XXXXX..XoooXX.. XXXXX..XoooXX.. XXXXX..XoooXX.. XXXXX..XoooXX.. XXXXX..XoooXX.. XX",
"XXX.XoXXXooX. XXXXX.XoXXXooX. XXXXX.XoXXXooX. XXXXX.XoXXXooX. XXXXX.XoXXXooX. XXXXX.XoXXXooX. XXXXX.XoXXXooX. XXXXX.XoXXXooX. XX",
"XXX.XXXXXXXoX XXXXX.XXXXXXXoX XXXXX.XXXXXXXoX XXXXX.XXXXXXXoX XXXXX.XXXXXXXoX XXXXX.XXXXXXXoX XXXXX.XXXXXXXoX XXXXX.XXXXXXXoX XX",
"XXX.XXXXXXXXX XXXXX.XXXXXXXXX XXXXX.XXXXXXXXX XXXXX.XXXXXXXXX XXXXX.XXXXXXXXX XXXXX.XXXXXXXXX XXXXX.XXXXXXXXX XXXXX.XXXXXXXXX XX",
"XX. XXXXXXXXX .XXX. XXXXXXXXX .XXX. XXXXXXXXX .XXX. XXXXXXXXX .XXX. XXXXXXXXX .XXX. XXXXXXXXX .XXX. XXXXXXXXX .XXX. XXXXXXXXX .X",
"..  XXXXXXXXX. ...  XXXXXXXXX. ...  XXXXXXXXX. ...  XXXXXXXXX. ...  XXXXXXXXX. ...  XXXXXXXXX. ...  XXXXXXXXX. ...  XXXXXXXXX. .",
"  ... .XXXXX....  ... .XXXXX....  ... .XXXXX....  ... .XXXXX....  ... .XXXXX....  ... .XXXXX....  ... .XXXXX....  ... .XXXXX....",
"ooooX .XXXXX.XooooooX .XXXXX.XooooooX .XXXXX.XooooooX .XXXXX.XooooooX .XXXXX.XooooooX .XXXXX.XooooooX .XXXXX.XooooooX .XXXXX.Xoo",
"XXXXXX .XXX..oXXXXXXXX .XXX..oXXXXXXXX .XXX..oXXXXXXXX .XXX..oXXXXXXXX .XXX..oXXXXXXXX .XXX..oXXXXXXXX .XXX..oXXXXXXXX .XXX..oXX",
"XXXXXX. ... .XXXXXXXXX. ... .XXXXXXXXX. ... .XXXXXXXXX. ... .XXXXXXXXX. ... .XXXXXXXXX. ... .XXXXXXXXX. ... .XXXXXXXXX. ... .XXX",
"XXXXXX.XoooX .XXXXXXXX.XoooX .XXXXXXXX.XoooX .XXXXXXXX.XoooX .XXXXXXXX.XoooX .XXXXXXXX.XoooX .XXXXXXXX.XoooX .XXXXXXXX.XoooX .XX",
"XXXXXX.oXXXXX .XXXXXXX.oXXXXX .XXXXXXX.oXXXXX .XXXXXXX.oXXXXX .XXXXXXX.oXXXXX .XXXXXXX.oXXXXX .XXXXXXX.oXXXXX .XXXXXXX.oXXXXX .X",
"..XXX..XXXXXX.  ..XXX..XXXXXX.  ..XXX..XXXXXX.  ..XXX..XXXXXX.  ..XXX..XXXXXX.  ..XXX..XXXXXX.  ..XXX..XXXXXX.  ..XXX..XXXXXX.  ",
"oX... .XXXXXX. ooX... .XXXXXX. ooX... .XXXXXX. ooX... .XXXXXX. ooX... .XXXXXX. ooX... .XXXXXX. ooX... .XXXXXX. ooX... .XXXXXX. o",
"XXX   ...XXX..oXXXX   ...XXX..oXXXX   ...XXX..oXXXX   ...XXX..oXXXX   ...XXX..oXXXX   ...XXX..oXXXX   ...XXX..oXXXX   ...XXX..oX",
"XXX. .XXX.... XXXXX. .XXX.... XXXXX. .XXX.... XXXXX. .XXX.... XXXXX. .XXX.... XXXXX. .XXX.... XXXXX. .XXX.... XXXXX. .XXX.... XX",
"XXX..XoooXX.. XXXXX..XoooXX.. XXXXX..XoooXX.. XXXXX..XoooXX.. XXXXX..XoooXX.. XXXXX..XoooXX.. XXXXX..XoooXX.. XXXXX..XoooXX.. XX",
"XXX.XoXXXooX. XXXXX.XoXXXooX. XXXXX.XoXXXooX. XXXXX.XoXXXooX. XXXXX.XoXXXooX. XXXXX.XoXXXooX. XXXXX.XoXXXooX. XXXXX.XoXXXooX. XX",
"XXX.XXXXXXXoX XXXXX.XXXXXXXoX XXXXX.XXXXXXXoX XXXXX.XXXXXXXoX XXXXX.XXXXXXXoX XXXXX.XXXXXXXoX XXXXX.XXXXXXXoX XXXXX.XXXXXXXoX XX",
"XXX.XXXXXXXXX XXXXX.XXXXXXXXX XXXXX.XXXXXXXXX XXXXX.XXXXXXXXX XXXXX.XXXXXXXXX XXXXX.XXXXXXXXX XXXXX.XXXXXXXXX XXXXX.XXXXXXXXX XX",
"XX. XXXXXXXXX .XXX. XXXXXXXXX .XXX. XXXXXXXXX .XXX. XXXXXXXXX .XXX. XXXXXXXXX .XXX. XXXXXXXXX .XXX. XXXXXXXXX .XXX. XXXXXXXXX .X",
"..  XXXXXXXXX. ...  XXXXXXXXX. ...  XXXXXXXXX. ...  XXXXXXXXX. ...  XXXXXXXXX. ...  XXXXXXXXX. ...  XXXXXXXXX. ...  XXXXXXXXX. .",
"  ... .XXXXX....  ... .XXXXX....  ... .XXXXX....  ... .XXXXX....  ... .XXXXX....  ... .XXXXX....  ... .XXXXX....  ... .XXXXX....",
"ooooX .XXXXX.XooooooX .XXXXX.XooooooX .XXXXX.XooooooX .XXXXX.XooooooX .XXXXX.XooooooX .XXXXX.XooooooX .XXXXX.XooooooX .XXXXX.Xoo",
"XXXXXX .XXX..oXXXXXXXX .XXX..oXXXXXXXX .XXX..oXXXXXXXX .XXX..oXXXXXXXX .XXX..oXXXXXXXX .XXX..oXXXXXXXX .XXX..oXXXXXXXX .XXX..oXX",
"XXXXXX. ... .XXXXXXXXX. ... .XXXXXXXXX. ... .XXXXXXXXX. ... .XXXXXXXXX. ... .XXXXXXXXX. ... .XXXXXXXXX. ... .XXXXXXXXX. ... .XXX",
"XXXXXX.XoooX .XXXXXXXX.XoooX .XXXXXXXX.XoooX .XXXXXXXX.XoooX .XXXXXXXX.XoooX .XXXXXXXX.XoooX .XXXXXXXX.XoooX .XXXXXXXX.XoooX .XX",
"XXXXXX.oXXXXX .XXXXXXX.oXXXXX .XXXXXXX.oXXXXX .XXXXXXX.oXXXXX .XXXXXXX.oXXXXX .XXXXXXX.oXXXXX .XXXXXXX.oXXXXX .XXXXXXX.oXXXXX .X",
"..XXX..XXXXXX.  ..XXX..XXXXXX.  ..XXX..XXXXXX.  ..XXX..XXXXXX.  ..XXX..XXXXXX.  ..XXX..XXXXXX.  ..XXX..XXXXXX.  ..XXX..XXXXXX.  ",
"oX... .XXXXXX. ooX... .XXXXXX. ooX... .XXXXXX. ooX... .XXXXXX. ooX... .XXXXXX. ooX... .XXXXXX. ooX... .XXXXXX. ooX... .XXXXXX. o",
"XXX   ...XXX..oXXXX   ...XXX..oXXXX   ...XXX..oXXXX   ...XXX..oXXXX   ...XXX..oXXXX   ...XXX..oXXXX   ...XXX..oXXXX   ...XXX..oX",
"XXX. .XXX.... XXXXX. .XXX.... XXXXX. .XXX.... XXXXX. .XXX.... XXXXX. .XXX.... XXXXX. .XXX.... XXXXX. .XXX.... XXXXX. .XXX.... XX",
"XXX..XoooXX.. XXXXX..XoooXX.. XXXXX..XoooXX.. XXXXX..XoooXX.. XXXXX..XoooXX.. XXXXX..XoooXX.. XXXXX..XoooXX.. XXXXX..XoooXX.. XX",
"XXX.XoXXXooX. XXXXX.XoXXXooX. XXXXX.XoXXXooX. XXXXX.XoXXXooX. XXXXX.XoXXXooX. XXXXX.XoXXXooX. XXXXX.XoXXXooX. XXXXX.XoXXXooX. XX",
"XXX.XXXXXXXoX XXXXX.XXXXXXXoX XXXXX.XXXXXXXoX XXXXX.XXXXXXXoX XXXXX.XXXXXXXoX XXXXX.XXXXXXXoX XXXXX.XXXXXXXoX XXXXX.XXXXXXXoX XX",
"XXX.XXXXXXXXX XXXXX.XXXXXXXXX XXXXX.XXXXXXXXX XXXXX.XXXXXXXXX XXXXX.XXXXXXXXX XXXXX.XXXXXXXXX XXXXX.XXXXXXXXX XXXXX.XXXXXXXXX XX",
"XX. XXXXXXXXX .XXX. XXXXXXXXX .XXX. XXXXXXXXX .XXX. XXXXXXXXX .XXX. XXXXXXXXX .XXX. XXXXXXXXX .XXX. XXXXXXXXX .XXX. XXXXXXXXX .X",
"..  XXXXXXXXX. ...  XXXXXXXXX. ...  XXXXXXXXX. ...  XXXXXXXXX. ...  XXXXXXXXX. ...  XXXXXXXXX. ...  XXXXXXXXX. ...  XXXXXXXXX. .",
"  ... .XXXXX....  ... .XXXXX....  ... .XXXXX....  ... .XXXXX....  ... .XXXXX....  ... .XXXXX....  ... .XXXXX....  ... .XXXXX....",
"ooooX .XXXXX.XooooooX .XXXXX.XooooooX .XXXXX.XooooooX .XXXXX.XooooooX .XXXXX.XooooooX .XXXXX.XooooooX .XXXXX.XooooooX .XXXXX.Xoo",
"XXXXXX .XXX..oXXXXXXXX .XXX..oXXXXXXXX .XXX..oXXXXXXXX .XXX..oXXXXXXXX .XXX..oXXXXXXXX .XXX..oXXXXXXXX .XXX..oXXXXXXXX .XXX..oXX",
"XXXXXX. ... .XXXXXXXXX. ... .XXXXXXXXX. ... .XXXXXXXXX. ... .XXXXXXXXX. ... .XXXXXXXXX. ... .XXXXXXXXX. ... .XXXXXXXXX. ... .XXX",
"XXXXXX.XoooX .XXXXXXXX.XoooX .XXXXXXXX.XoooX .XXXXXXXX.XoooX .XXXXXXXX.XoooX .XXXXXXXX.XoooX .XXXXXXXX.XoooX .XXXXXXXX.XoooX .XX",
"XXXXXX.oXXXXX .XXXXXXX.oXXXXX .XXXXXXX.oXXXXX .XXXXXXX.oXXXXX .XXXXXXX.oXXXXX .XXXXXXX.oXXXXX .XXXXXXX.oXXXXX .XXXXXXX.oXXXXX .X",
"..XXX..XXXXXX.  ..XXX..XXXXXX.  ..XXX..XXXXXX.  ..XXX..XXXXXX.  ..XXX..XXXXXX.  ..XXX..XXXXXX.  ..XXX..XXXXXX.  ..XXX..XXXXXX.  ",
"oX... .XXXXXX. ooX... .XXXXXX. ooX... .XXXXXX. ooX... .XXXXXX. ooX... .XXXXXX. ooX... .XXXXXX. ooX... .XXXXXX. ooX... .XXXXXX. o",
"XXX   ...XXX..oXXXX   ...XXX..oXXXX   ...XXX..oXXXX   ...XXX..oXXXX   ...XXX..oXXXX   ...XXX..oXXXX   ...XXX..oXXXX   ...XXX..oX",
"XXX. .XXX.... XXXXX. .XXX.... XXXXX. .XXX.... XXXXX. .XXX.... XXXXX. .XXX.... XXXXX. .XXX.... XXXXX. .XXX.... XXXXX. .XXX.... XX",
"XXX..XoooXX.. XXXXX..XoooXX.. XXXXX..XoooXX.. XXXXX..XoooXX.. XXXXX..XoooXX.. XXXXX..XoooXX.. XXXXX..XoooXX.. XXXXX..XoooXX.. XX",
"XXX.XoXXXooX. XXXXX.XoXXXooX. XXXXX.XoXXXooX. XXXXX.XoXXXooX. XXXXX.XoXXXooX. XXXXX.XoXXXooX. XXXXX.XoXXXooX. XXXXX.XoXXXooX. XX",
"XXX.XXXXXXXoX XXXXX.XXXXXXXoX XXXXX.XXXXXXXoX XXXXX.XXXXXXXoX XXXXX.XXXXXXXoX XXXXX.XXXXXXXoX XXXXX.XXXXXXXoX XXXXX.XXXXXXXoX XX",
"XXX.XXXXXXXXX XXXXX.XXXXXXXXX XXXXX.XXXXXXXXX XXXXX.XXXXXXXXX XXXXX.XXXXXXXXX XXXXX.XXXXXXXXX XXXXX.XXXXXXXXX XXXXX.XXXXXXXXX XX",
"XX. XXXXXXXXX .XXX. XXXXXXXXX .XXX. XXXXXXXXX .XXX. XXXXXXXXX .XXX. XXXXXXXXX .XXX. XXXXXXXXX .XXX. XXXXXXXXX .XXX. XXXXXXXXX .X",
"..  XXXXXXXXX. ...  XXXXXXXXX. ...  XXXXXXXXX. ...  XXXXXXXXX. ...  XXXXXXXXX. ...  XXXXXXXXX. ...  XXXXXXXXX. ...  XXXXXXXXX. .",
"  ... .XXXXX....  ... .XXXXX....  ... .XXXXX....  ... .XXXXX....  ... .XXXXX....  ... .XXXXX....  ... .XXXXX....  ... .XXXXX....",
"ooooX .XXXXX.XooooooX .XXXXX.XooooooX .XXXXX.XooooooX .XXXXX.XooooooX .XXXXX.XooooooX .XXXXX.XooooooX .XXXXX.XooooooX .XXXXX.Xoo",
"XXXXXX .XXX..oXXXXXXXX .XXX..oXXXXXXXX .XXX..oXXXXXXXX .XXX..oXXXXXXXX .XXX..oXXXXXXXX .XXX..oXXXXXXXX .XXX..oXXXXXXXX .XXX..oXX",
"XXXXXX. ... .XXXXXXXXX. ... .XXXXXXXXX. ... .XXXXXXXXX. ... .XXXXXXXXX. ... .XXXXXXXXX. ... .XXXXXXXXX. ... .XXXXXXXXX. ... .XXX",
"XXXXXX.XoooX .XXXXXXXX.XoooX .XXXXXXXX.XoooX .XXXXXXXX.XoooX .XXXXXXXX.XoooX .XXXXXXXX.XoooX .XXXXXXXX.XoooX .XXXXXXXX.XoooX .XX",
"XXXXXX.oXXXXX .XXXXXXX.oXXXXX .XXXXXXX.oXXXXX .XXXXXXX.oXXXXX .XXXXXXX.oXXXXX .XXXXXXX.oXXXXX .XXXXXXX.oXXXXX .XXXXXXX.oXXXXX .X",
"..XXX..XXXXXX.  ..XXX..XXXXXX.  ..XXX..XXXXXX.  ..XXX..XXXXXX.  ..XXX..XXXXXX.  ..XXX..XXXXXX.  ..XXX..XXXXXX.  ..XXX..XXXXXX.  ",
"oX... .XXXXXX. ooX... .XXXXXX. ooX... .XXXXXX. ooX... .XXXXXX. ooX... .XXXXXX. ooX... .XXXXXX. ooX... .XXXXXX. ooX... .XXXXXX. o",
"XXX   ...XXX..oXXXX   ...XXX..oXXXX   ...XXX..oXXXX   ...XXX..oXXXX   ...XXX..oXXXX   ...XXX..oXXXX   ...XXX..oXXXX   ...XXX..oX",
"XXX. .XXX.... XXXXX. .XXX.... XXXXX. .XXX.... XXXXX. .XXX.... XXXXX. .XXX.... XXXXX. .XXX.... XXXXX. .XXX.... XXXXX. .XXX.... XX",
"XXX..XoooXX.. XXXXX..XoooXX.. XXXXX..XoooXX.. XXXXX..XoooXX.. XXXXX..XoooXX.. XXXXX..XoooXX.. XXXXX..XoooXX.. XXXXX..XoooXX.. XX",
"XXX.XoXXXooX. XXXXX.XoXXXooX. XXXXX.XoXXXooX. XXXXX.XoXXXooX. XXXXX.XoXXXooX. XXXXX.XoXXXooX. XXXXX.XoXXXooX. XXXXX.XoXXXooX. XX",
"XXX.XXXXXXXoX XXXXX.XXXXXXXoX XXXXX.XXXXXXXoX XXXXX.XXXXXXXoX XXXXX.XXXXXXXoX XXXXX.XXXXXXXoX XXXXX.XXXXXXXoX XXXXX.XXXXXXXoX XX",
"XXX.XXXXXXXXX XXXXX.XXXXXXXXX XXXXX.XXXXXXXXX XXXXX.XXXXXXXXX XXXXX.XXXXXXXXX XXXXX.XXXXXXXXX XXXXX.XXXXXXXXX XXXXX.XXXXXXXXX XX",
"XX. XXXXXXXXX .XXX. XXXXXXXXX .XXX. XXXXXXXXX .XXX. XXXXXXXXX .XXX. XXXXXXXXX .XXX. XXXXXXXXX .XXX. XXXXXXXXX .XXX. XXXXXXXXX .X",
"..  XXXXXXXXX. ...  XXXXXXXXX. ...  XXXXXXXXX. ...  XXXXXXXXX. ...  XXXXXXXXX. ...  XXXXXXXXX. ...  XXXXXXXXX. ...  XXXXXXXXX. ."
};
