/* XPM */
static char *bc5d36a3bbcf4c5588e9999257b66704FhdQeTlVtPgPEjvm[] = {
/* columns rows colors chars-per-pixel */
"128 128 6 1 ",
"  c #181425",
". c #202136",
"X c #252941",
"o c #2C2F4A",
"O c #3E455D",
"+ c #5A6177",
/* pixels */
"XOO  OOOOO+  ...XOO  OOOOO+  ...XOO  OOOOO+  ...XOO  OOOOO+  ...XOO  OOOOO+  ...XOO  OOOOO+  ...XOO  OOOOO+  ...XOO  OOOOO+  ...",
"O+OO .OOOO+o   XO+OO .OOOO+o   XO+OO .OOOO+o   XO+OO .OOOO+o   XO+OO .OOOO+o   XO+OO .OOOO+o   XO+OO .OOOO+o   XO+OO .OOOO+o   X",
"OO+OO .OOOOo  XOOO+OO .OOOOo  XOOO+OO .OOOOo  XOOO+OO .OOOOo  XOOO+OO .OOOOo  XOOO+OO .OOOOo  XOOO+OO .OOOOo  XOOO+OO .OOOOo  XO",
"OO+OO  ....o XOOOO+OO  ....o XOOOO+OO  ....o XOOOO+OO  ....o XOOOO+OO  ....o XOOOO+OO  ....o XOOOO+OO  ....o XOOOO+OO  ....o XOO",
"OO+oo        XOOOO+oo        XOOOO+oo        XOOOO+oo        XOOOO+oo        XOOOO+oo        XOOOO+oo        XOOOO+oo        XOO",
"O+oo XXXXOO  .OOO+oo XXXXOO  .OOO+oo XXXXOO  .OOO+oo XXXXOO  .OOO+oo XXXXOO  .OOO+oo XXXXOO  .OOO+oo XXXXOO  .OOO+oo XXXXOO  .OO",
"Ooo XXOOO+OO ..OOoo XXOOO+OO ..OOoo XXOOO+OO ..OOoo XXOOO+OO ..OOoo XXOOO+OO ..OOoo XXOOO+OO ..OOoo XXOOO+OO ..OOoo XXOOO+OO ..O",
"oo  XXOOOO+OO ..oo  XXOOOO+OO ..oo  XXOOOO+OO ..oo  XXOOOO+OO ..oo  XXOOOO+OO ..oo  XXOOOO+OO ..oo  XXOOOO+OO ..oo  XXOOOO+OO ..",
"    ooOOOOO+OO .    ooOOOOO+OO .    ooOOOOO+OO .    ooOOOOO+OO .    ooOOOOO+OO .    ooOOOOO+OO .    ooOOOOO+OO .    ooOOOOO+OO .",
"XX  ooOOOOOO+OO XX  ooOOOOOO+OO XX  ooOOOOOO+OO XX  ooOOOOOO+OO XX  ooOOOOOO+OO XX  ooOOOOOO+OO XX  ooOOOOOO+OO XX  ooOOOOOO+OO ",
"O+X ..OOOOOO+oo O+X ..OOOOOO+oo O+X ..OOOOOO+oo O+X ..OOOOOO+oo O+X ..OOOOOO+oo O+X ..OOOOOO+oo O+X ..OOOOOO+oo O+X ..OOOOOO+oo ",
"OO+o ..OOOO+oo OOO+o ..OOOO+oo OOO+o ..OOOO+oo OOO+o ..OOOO+oo OOO+o ..OOOO+oo OOO+o ..OOOO+oo OOO+o ..OOOO+oo OOO+o ..OOOO+oo O",
"OO+o  ...oooo OOOO+o  ...oooo OOOO+o  ...oooo OOOO+o  ...oooo OOOO+o  ...oooo OOOO+o  ...oooo OOOO+o  ...oooo OOOO+o  ...oooo OO",
"O+o  OO+.... OOOO+o  OO+.... OOOO+o  OO+.... OOOO+o  OO+.... OOOO+o  OO+.... OOOO+o  OO+.... OOOO+o  OO+.... OOOO+o  OO+.... OOO",
"Oo  OOOO+   .OOOOo  OOOO+   .OOOOo  OOOO+   .OOOOo  OOOO+   .OOOOo  OOOO+   .OOOOo  OOOO+   .OOOOo  OOOO+   .OOOOo  OOOO+   .OOO",
"o X OOOOO+  .oOOo X OOOOO+  .oOOo X OOOOO+  .oOOo X OOOOO+  .oOOo X OOOOO+  .oOOo X OOOOO+  .oOOo X OOOOO+  .oOOo X OOOOO+  .oOO",
"XOO  OOOOO+  ...XOO  OOOOO+  ...XOO  OOOOO+  ...XOO  OOOOO+  ...XOO  OOOOO+  ...XOO  OOOOO+  ...XOO  OOOOO+  ...XOO  OOOOO+  ...",
"O+OO .OOOO+o   XO+OO .OOOO+o   XO+OO .OOOO+o   XO+OO .OOOO+o   XO+OO .OOOO+o   XO+OO .OOOO+o   XO+OO .OOOO+o   XO+OO .OOOO+o   X",
"OO+OO .OOOOo  XOOO+OO .OOOOo  XOOO+OO .OOOOo  XOOO+OO .OOOOo  XOOO+OO .OOOOo  XOOO+OO .OOOOo  XOOO+OO .OOOOo  XOOO+OO .OOOOo  XO",
"OO+OO  ....o XOOOO+OO  ....o XOOOO+OO  ....o XOOOO+OO  ....o XOOOO+OO  ....o XOOOO+OO  ....o XOOOO+OO  ....o XOOOO+OO  ....o XOO",
"OO+oo        XOOOO+oo        XOOOO+oo        XOOOO+oo        XOOOO+oo        XOOOO+oo        XOOOO+oo        XOOOO+oo        XOO",
"O+oo XXXXOO  .OOO+oo XXXXOO  .OOO+oo XXXXOO  .OOO+oo XXXXOO  .OOO+oo XXXXOO  .OOO+oo XXXXOO  .OOO+oo XXXXOO  .OOO+oo XXXXOO  .OO",
"Ooo XXOOO+OO ..OOoo XXOOO+OO ..OOoo XXOOO+OO ..OOoo XXOOO+OO ..OOoo XXOOO+OO ..OOoo XXOOO+OO ..OOoo XXOOO+OO ..OOoo XXOOO+OO ..O",
"oo  XXOOOO+OO ..oo  XXOOOO+OO ..oo  XXOOOO+OO ..oo  XXOOOO+OO ..oo  XXOOOO+OO ..oo  XXOOOO+OO ..oo  XXOOOO+OO ..oo  XXOOOO+OO ..",
"    ooOOOOO+OO .    ooOOOOO+OO .    ooOOOOO+OO .    ooOOOOO+OO .    ooOOOOO+OO .    ooOOOOO+OO .    ooOOOOO+OO .    ooOOOOO+OO .",
"XX  ooOOOOOO+OO XX  ooOOOOOO+OO XX  ooOOOOOO+OO XX  ooOOOOOO+OO XX  ooOOOOOO+OO XX  ooOOOOOO+OO XX  ooOOOOOO+OO XX  ooOOOOOO+OO ",
"O+X ..OOOOOO+oo O+X ..OOOOOO+oo O+X ..OOOOOO+oo O+X ..OOOOOO+oo O+X ..OOOOOO+oo O+X ..OOOOOO+oo O+X ..OOOOOO+oo O+X ..OOOOOO+oo ",
"OO+o ..OOOO+oo OOO+o ..OOOO+oo OOO+o ..OOOO+oo OOO+o ..OOOO+oo OOO+o ..OOOO+oo OOO+o ..OOOO+oo OOO+o ..OOOO+oo OOO+o ..OOOO+oo O",
"OO+o  ...oooo OOOO+o  ...oooo OOOO+o  ...oooo OOOO+o  ...oooo OOOO+o  ...oooo OOOO+o  ...oooo OOOO+o  ...oooo OOOO+o  ...oooo OO",
"O+o  OO+.... OOOO+o  OO+.... OOOO+o  OO+.... OOOO+o  OO+.... OOOO+o  OO+.... OOOO+o  OO+.... OOOO+o  OO+.... OOOO+o  OO+.... OOO",
"Oo  OOOO+   .OOOOo  OOOO+   .OOOOo  OOOO+   .OOOOo  OOOO+   .OOOOo  OOOO+   .OOOOo  OOOO+   .OOOOo  OOOO+   .OOOOo  OOOO+   .OOO",
"o X OOOOO+  .oOOo X OOOOO+  .oOOo X OOOOO+  .oOOo X OOOOO+  .oOOo X OOOOO+  .oOOo X OOOOO+  .oOOo X OOOOO+  .oOOo X OOOOO+  .oOO",
"XOO  OOOOO+  ...XOO  OOOOO+  ...XOO  OOOOO+  ...XOO  OOOOO+  ...XOO  OOOOO+  ...XOO  OOOOO+  ...XOO  OOOOO+  ...XOO  OOOOO+  ...",
"O+OO .OOOO+o   XO+OO .OOOO+o   XO+OO .OOOO+o   XO+OO .OOOO+o   XO+OO .OOOO+o   XO+OO .OOOO+o   XO+OO .OOOO+o   XO+OO .OOOO+o   X",
"OO+OO .OOOOo  XOOO+OO .OOOOo  XOOO+OO .OOOOo  XOOO+OO .OOOOo  XOOO+OO .OOOOo  XOOO+OO .OOOOo  XOOO+OO .OOOOo  XOOO+OO .OOOOo  XO",
"OO+OO  ....o XOOOO+OO  ....o XOOOO+OO  ....o XOOOO+OO  ....o XOOOO+OO  ....o XOOOO+OO  ....o XOOOO+OO  ....o XOOOO+OO  ....o XOO",
"OO+oo        XOOOO+oo        XOOOO+oo        XOOOO+oo        XOOOO+oo        XOOOO+oo        XOOOO+oo        XOOOO+oo        XOO",
"O+oo XXXXOO  .OOO+oo XXXXOO  .OOO+oo XXXXOO  .OOO+oo XXXXOO  .OOO+oo XXXXOO  .OOO+oo XXXXOO  .OOO+oo XXXXOO  .OOO+oo XXXXOO  .OO",
"Ooo XXOOO+OO ..OOoo XXOOO+OO ..OOoo XXOOO+OO ..OOoo XXOOO+OO ..OOoo XXOOO+OO ..OOoo XXOOO+OO ..OOoo XXOOO+OO ..OOoo XXOOO+OO ..O",
"oo  XXOOOO+OO ..oo  XXOOOO+OO ..oo  XXOOOO+OO ..oo  XXOOOO+OO ..oo  XXOOOO+OO ..oo  XXOOOO+OO ..oo  XXOOOO+OO ..oo  XXOOOO+OO ..",
"    ooOOOOO+OO .    ooOOOOO+OO .    ooOOOOO+OO .    ooOOOOO+OO .    ooOOOOO+OO .    ooOOOOO+OO .    ooOOOOO+OO .    ooOOOOO+OO .",
"XX  ooOOOOOO+OO XX  ooOOOOOO+OO XX  ooOOOOOO+OO XX  ooOOOOOO+OO XX  ooOOOOOO+OO XX  ooOOOOOO+OO XX  ooOOOOOO+OO XX  ooOOOOOO+OO ",
"O+X ..OOOOOO+oo O+X ..OOOOOO+oo O+X ..OOOOOO+oo O+X ..OOOOOO+oo O+X ..OOOOOO+oo O+X ..OOOOOO+oo O+X ..OOOOOO+oo O+X ..OOOOOO+oo ",
"OO+o ..OOOO+oo OOO+o ..OOOO+oo OOO+o ..OOOO+oo OOO+o ..OOOO+oo OOO+o ..OOOO+oo OOO+o ..OOOO+oo OOO+o ..OOOO+oo OOO+o ..OOOO+oo O",
"OO+o  ...oooo OOOO+o  ...oooo OOOO+o  ...oooo OOOO+o  ...oooo OOOO+o  ...oooo OOOO+o  ...oooo OOOO+o  ...oooo OOOO+o  ...oooo OO",
"O+o  OO+.... OOOO+o  OO+.... OOOO+o  OO+.... OOOO+o  OO+.... OOOO+o  OO+.... OOOO+o  OO+.... OOOO+o  OO+.... OOOO+o  OO+.... OOO",
"Oo  OOOO+   .OOOOo  OOOO+   .OOOOo  OOOO+   .OOOOo  OOOO+   .OOOOo  OOOO+   .OOOOo  OOOO+   .OOOOo  OOOO+   .OOOOo  OOOO+   .OOO",
"o X OOOOO+  .oOOo X OOOOO+  .oOOo X OOOOO+  .oOOo X OOOOO+  .oOOo X OOOOO+  .oOOo X OOOOO+  .oOOo X OOOOO+  .oOOo X OOOOO+  .oOO",
"XOO  OOOOO+  ...XOO  OOOOO+  ...XOO  OOOOO+  ...XOO  OOOOO+  ...XOO  OOOOO+  ...XOO  OOOOO+  ...XOO  OOOOO+  ...XOO  OOOOO+  ...",
"O+OO .OOOO+o   XO+OO .OOOO+o   XO+OO .OOOO+o   XO+OO .OOOO+o   XO+OO .OOOO+o   XO+OO .OOOO+o   XO+OO .OOOO+o   XO+OO .OOOO+o   X",
"OO+OO .OOOOo  XOOO+OO .OOOOo  XOOO+OO .OOOOo  XOOO+OO .OOOOo  XOOO+OO .OOOOo  XOOO+OO .OOOOo  XOOO+OO .OOOOo  XOOO+OO .OOOOo  XO",
"OO+OO  ....o XOOOO+OO  ....o XOOOO+OO  ....o XOOOO+OO  ....o XOOOO+OO  ....o XOOOO+OO  ....o XOOOO+OO  ....o XOOOO+OO  ....o XOO",
"OO+oo        XOOOO+oo        XOOOO+oo        XOOOO+oo        XOOOO+oo        XOOOO+oo        XOOOO+oo        XOOOO+oo        XOO",
"O+oo XXXXOO  .OOO+oo XXXXOO  .OOO+oo XXXXOO  .OOO+oo XXXXOO  .OOO+oo XXXXOO  .OOO+oo XXXXOO  .OOO+oo XXXXOO  .OOO+oo XXXXOO  .OO",
"Ooo XXOOO+OO ..OOoo XXOOO+OO ..OOoo XXOOO+OO ..OOoo XXOOO+OO ..OOoo XXOOO+OO ..OOoo XXOOO+OO ..OOoo XXOOO+OO ..OOoo XXOOO+OO ..O",
"oo  XXOOOO+OO ..oo  XXOOOO+OO ..oo  XXOOOO+OO ..oo  XXOOOO+OO ..oo  XXOOOO+OO ..oo  XXOOOO+OO ..oo  XXOOOO+OO ..oo  XXOOOO+OO ..",
"    ooOOOOO+OO .    ooOOOOO+OO .    ooOOOOO+OO .    ooOOOOO+OO .    ooOOOOO+OO .    ooOOOOO+OO .    ooOOOOO+OO .    ooOOOOO+OO .",
"XX  ooOOOOOO+OO XX  ooOOOOOO+OO XX  ooOOOOOO+OO XX  ooOOOOOO+OO XX  ooOOOOOO+OO XX  ooOOOOOO+OO XX  ooOOOOOO+OO XX  ooOOOOOO+OO ",
"O+X ..OOOOOO+oo O+X ..OOOOOO+oo O+X ..OOOOOO+oo O+X ..OOOOOO+oo O+X ..OOOOOO+oo O+X ..OOOOOO+oo O+X ..OOOOOO+oo O+X ..OOOOOO+oo ",
"OO+o ..OOOO+oo OOO+o ..OOOO+oo OOO+o ..OOOO+oo OOO+o ..OOOO+oo OOO+o ..OOOO+oo OOO+o ..OOOO+oo OOO+o ..OOOO+oo OOO+o ..OOOO+oo O",
"OO+o  ...oooo OOOO+o  ...oooo OOOO+o  ...oooo OOOO+o  ...oooo OOOO+o  ...oooo OOOO+o  ...oooo OOOO+o  ...oooo OOOO+o  ...oooo OO",
"O+o  OO+.... OOOO+o  OO+.... OOOO+o  OO+.... OOOO+o  OO+.... OOOO+o  OO+.... OOOO+o  OO+.... OOOO+o  OO+.... OOOO+o  OO+.... OOO",
"Oo  OOOO+   .OOOOo  OOOO+   .OOOOo  OOOO+   .OOOOo  OOOO+   .OOOOo  OOOO+   .OOOOo  OOOO+   .OOOOo  OOOO+   .OOOOo  OOOO+   .OOO",
"o X OOOOO+  .oOOo X OOOOO+  .oOOo X OOOOO+  .oOOo X OOOOO+  .oOOo X OOOOO+  .oOOo X OOOOO+  .oOOo X OOOOO+  .oOOo X OOOOO+  .oOO",
"XOO  OOOOO+  ...XOO  OOOOO+  ...XOO  OOOOO+  ...XOO  OOOOO+  ...XOO  OOOOO+  ...XOO  OOOOO+  ...XOO  OOOOO+  ...XOO  OOOOO+  ...",
"O+OO .OOOO+o   XO+OO .OOOO+o   XO+OO .OOOO+o   XO+OO .OOOO+o   XO+OO .OOOO+o   XO+OO .OOOO+o   XO+OO .OOOO+o   XO+OO .OOOO+o   X",
"OO+OO .OOOOo  XOOO+OO .OOOOo  XOOO+OO .OOOOo  XOOO+OO .OOOOo  XOOO+OO .OOOOo  XOOO+OO .OOOOo  XOOO+OO .OOOOo  XOOO+OO .OOOOo  XO",
"OO+OO  ....o XOOOO+OO  ....o XOOOO+OO  ....o XOOOO+OO  ....o XOOOO+OO  ....o XOOOO+OO  ....o XOOOO+OO  ....o XOOOO+OO  ....o XOO",
"OO+oo        XOOOO+oo        XOOOO+oo        XOOOO+oo        XOOOO+oo        XOOOO+oo        XOOOO+oo        XOOOO+oo        XOO",
"O+oo XXXXOO  .OOO+oo XXXXOO  .OOO+oo XXXXOO  .OOO+oo XXXXOO  .OOO+oo XXXXOO  .OOO+oo XXXXOO  .OOO+oo XXXXOO  .OOO+oo XXXXOO  .OO",
"Ooo XXOOO+OO ..OOoo XXOOO+OO ..OOoo XXOOO+OO ..OOoo XXOOO+OO ..OOoo XXOOO+OO ..OOoo XXOOO+OO ..OOoo XXOOO+OO ..OOoo XXOOO+OO ..O",
"oo  XXOOOO+OO ..oo  XXOOOO+OO ..oo  XXOOOO+OO ..oo  XXOOOO+OO ..oo  XXOOOO+OO ..oo  XXOOOO+OO ..oo  XXOOOO+OO ..oo  XXOOOO+OO ..",
"    ooOOOOO+OO .    ooOOOOO+OO .    ooOOOOO+OO .    ooOOOOO+OO .    ooOOOOO+OO .    ooOOOOO+OO .    ooOOOOO+OO .    ooOOOOO+OO .",
"XX  ooOOOOOO+OO XX  ooOOOOOO+OO XX  ooOOOOOO+OO XX  ooOOOOOO+OO XX  ooOOOOOO+OO XX  ooOOOOOO+OO XX  ooOOOOOO+OO XX  ooOOOOOO+OO ",
"O+X ..OOOOOO+oo O+X ..OOOOOO+oo O+X ..OOOOOO+oo O+X ..OOOOOO+oo O+X ..OOOOOO+oo O+X ..OOOOOO+oo O+X ..OOOOOO+oo O+X ..OOOOOO+oo ",
"OO+o ..OOOO+oo OOO+o ..OOOO+oo OOO+o ..OOOO+oo OOO+o ..OOOO+oo OOO+o ..OOOO+oo OOO+o ..OOOO+oo OOO+o ..OOOO+oo OOO+o ..OOOO+oo O",
"OO+o  ...oooo OOOO+o  ...oooo OOOO+o  ...oooo OOOO+o  ...oooo OOOO+o  ...oooo OOOO+o  ...oooo OOOO+o  ...oooo OOOO+o  ...oooo OO",
"O+o  OO+.... OOOO+o  OO+.... OOOO+o  OO+.... OOOO+o  OO+.... OOOO+o  OO+.... OOOO+o  OO+.... OOOO+o  OO+.... OOOO+o  OO+.... OOO",
"Oo  OOOO+   .OOOOo  OOOO+   .OOOOo  OOOO+   .OOOOo  OOOO+   .OOOOo  OOOO+   .OOOOo  OOOO+   .OOOOo  OOOO+   .OOOOo  OOOO+   .OOO",
"o X OOOOO+  .oOOo X OOOOO+  .oOOo X OOOOO+  .oOOo X OOOOO+  .oOOo X OOOOO+  .oOOo X OOOOO+  .oOOo X OOOOO+  .oOOo X OOOOO+  .oOO",
"XOO  OOOOO+  ...XOO  OOOOO+  ...XOO  OOOOO+  ...XOO  OOOOO+  ...XOO  OOOOO+  ...XOO  OOOOO+  ...XOO  OOOOO+  ...XOO  OOOOO+  ...",
"O+OO .OOOO+o   XO+OO .OOOO+o   XO+OO .OOOO+o   XO+OO .OOOO+o   XO+OO .OOOO+o   XO+OO .OOOO+o   XO+OO .OOOO+o   XO+OO .OOOO+o   X",
"OO+OO .OOOOo  XOOO+OO .OOOOo  XOOO+OO .OOOOo  XOOO+OO .OOOOo  XOOO+OO .OOOOo  XOOO+OO .OOOOo  XOOO+OO .OOOOo  XOOO+OO .OOOOo  XO",
"OO+OO  ....o XOOOO+OO  ....o XOOOO+OO  ....o XOOOO+OO  ....o XOOOO+OO  ....o XOOOO+OO  ....o XOOOO+OO  ....o XOOOO+OO  ....o XOO",
"OO+oo        XOOOO+oo        XOOOO+oo        XOOOO+oo        XOOOO+oo        XOOOO+oo        XOOOO+oo        XOOOO+oo        XOO",
"O+oo XXXXOO  .OOO+oo XXXXOO  .OOO+oo XXXXOO  .OOO+oo XXXXOO  .OOO+oo XXXXOO  .OOO+oo XXXXOO  .OOO+oo XXXXOO  .OOO+oo XXXXOO  .OO",
"Ooo XXOOO+OO ..OOoo XXOOO+OO ..OOoo XXOOO+OO ..OOoo XXOOO+OO ..OOoo XXOOO+OO ..OOoo XXOOO+OO ..OOoo XXOOO+OO ..OOoo XXOOO+OO ..O",
"oo  XXOOOO+OO ..oo  XXOOOO+OO ..oo  XXOOOO+OO ..oo  XXOOOO+OO ..oo  XXOOOO+OO ..oo  XXOOOO+OO ..oo  XXOOOO+OO ..oo  XXOOOO+OO ..",
"    ooOOOOO+OO .    ooOOOOO+OO .    ooOOOOO+OO .    ooOOOOO+OO .    ooOOOOO+OO .    ooOOOOO+OO .    ooOOOOO+OO .    ooOOOOO+OO .",
"XX  ooOOOOOO+OO XX  ooOOOOOO+OO XX  ooOOOOOO+OO XX  ooOOOOOO+OO XX  ooOOOOOO+OO XX  ooOOOOOO+OO XX  ooOOOOOO+OO XX  ooOOOOOO+OO ",
"O+X ..OOOOOO+oo O+X ..OOOOOO+oo O+X ..OOOOOO+oo O+X ..OOOOOO+oo O+X ..OOOOOO+oo O+X ..OOOOOO+oo O+X ..OOOOOO+oo O+X ..OOOOOO+oo ",
"OO+o ..OOOO+oo OOO+o ..OOOO+oo OOO+o ..OOOO+oo OOO+o ..OOOO+oo OOO+o ..OOOO+oo OOO+o ..OOOO+oo OOO+o ..OOOO+oo OOO+o ..OOOO+oo O",
"OO+o  ...oooo OOOO+o  ...oooo OOOO+o  ...oooo OOOO+o  ...oooo OOOO+o  ...oooo OOOO+o  ...oooo OOOO+o  ...oooo OOOO+o  ...oooo OO",
"O+o  OO+.... OOOO+o  OO+.... OOOO+o  OO+.... OOOO+o  OO+.... OOOO+o  OO+.... OOOO+o  OO+.... OOOO+o  OO+.... OOOO+o  OO+.... OOO",
"Oo  OOOO+   .OOOOo  OOOO+   .OOOOo  OOOO+   .OOOOo  OOOO+   .OOOOo  OOOO+   .OOOOo  OOOO+   .OOOOo  OOOO+   .OOOOo  OOOO+   .OOO",
"o X OOOOO+  .oOOo X OOOOO+  .oOOo X OOOOO+  .oOOo X OOOOO+  .oOOo X OOOOO+  .oOOo X OOOOO+  .oOOo X OOOOO+  .oOOo X OOOOO+  .oOO",
"XOO  OOOOO+  ...XOO  OOOOO+  ...XOO  OOOOO+  ...XOO  OOOOO+  ...XOO  OOOOO+  ...XOO  OOOOO+  ...XOO  OOOOO+  ...XOO  OOOOO+  ...",
"O+OO .OOOO+o   XO+OO .OOOO+o   XO+OO .OOOO+o   XO+OO .OOOO+o   XO+OO .OOOO+o   XO+OO .OOOO+o   XO+OO .OOOO+o   XO+OO .OOOO+o   X",
"OO+OO .OOOOo  XOOO+OO .OOOOo  XOOO+OO .OOOOo  XOOO+OO .OOOOo  XOOO+OO .OOOOo  XOOO+OO .OOOOo  XOOO+OO .OOOOo  XOOO+OO .OOOOo  XO",
"OO+OO  ....o XOOOO+OO  ....o XOOOO+OO  ....o XOOOO+OO  ....o XOOOO+OO  ....o XOOOO+OO  ....o XOOOO+OO  ....o XOOOO+OO  ....o XOO",
"OO+oo        XOOOO+oo        XOOOO+oo        XOOOO+oo        XOOOO+oo        XOOOO+oo        XOOOO+oo        XOOOO+oo        XOO",
"O+oo XXXXOO  .OOO+oo XXXXOO  .OOO+oo XXXXOO  .OOO+oo XXXXOO  .OOO+oo XXXXOO  .OOO+oo XXXXOO  .OOO+oo XXXXOO  .OOO+oo XXXXOO  .OO",
"Ooo XXOOO+OO ..OOoo XXOOO+OO ..OOoo XXOOO+OO ..OOoo XXOOO+OO ..OOoo XXOOO+OO ..OOoo XXOOO+OO ..OOoo XXOOO+OO ..OOoo XXOOO+OO ..O",
"oo  XXOOOO+OO ..oo  XXOOOO+OO ..oo  XXOOOO+OO ..oo  XXOOOO+OO ..oo  XXOOOO+OO ..oo  XXOOOO+OO ..oo  XXOOOO+OO ..oo  XXOOOO+OO ..",
"    ooOOOOO+OO .    ooOOOOO+OO .    ooOOOOO+OO .    ooOOOOO+OO .    ooOOOOO+OO .    ooOOOOO+OO .    ooOOOOO+OO .    ooOOOOO+OO .",
"XX  ooOOOOOO+OO XX  ooOOOOOO+OO XX  ooOOOOOO+OO XX  ooOOOOOO+OO XX  ooOOOOOO+OO XX  ooOOOOOO+OO XX  ooOOOOOO+OO XX  ooOOOOOO+OO ",
"O+X ..OOOOOO+oo O+X ..OOOOOO+oo O+X ..OOOOOO+oo O+X ..OOOOOO+oo O+X ..OOOOOO+oo O+X ..OOOOOO+oo O+X ..OOOOOO+oo O+X ..OOOOOO+oo ",
"OO+o ..OOOO+oo OOO+o ..OOOO+oo OOO+o ..OOOO+oo OOO+o ..OOOO+oo OOO+o ..OOOO+oo OOO+o ..OOOO+oo OOO+o ..OOOO+oo OOO+o ..OOOO+oo O",
"OO+o  ...oooo OOOO+o  ...oooo OOOO+o  ...oooo OOOO+o  ...oooo OOOO+o  ...oooo OOOO+o  ...oooo OOOO+o  ...oooo OOOO+o  ...oooo OO",
"O+o  OO+.... OOOO+o  OO+.... OOOO+o  OO+.... OOOO+o  OO+.... OOOO+o  OO+.... OOOO+o  OO+.... OOOO+o  OO+.... OOOO+o  OO+.... OOO",
"Oo  OOOO+   .OOOOo  OOOO+   .OOOOo  OOOO+   .OOOOo  OOOO+   .OOOOo  OOOO+   .OOOOo  OOOO+   .OOOOo  OOOO+   .OOOOo  OOOO+   .OOO",
"o X OOOOO+  .oOOo X OOOOO+  .oOOo X OOOOO+  .oOOo X OOOOO+  .oOOo X OOOOO+  .oOOo X OOOOO+  .oOOo X OOOOO+  .oOOo X OOOOO+  .oOO",
"XOO  OOOOO+  ...XOO  OOOOO+  ...XOO  OOOOO+  ...XOO  OOOOO+  ...XOO  OOOOO+  ...XOO  OOOOO+  ...XOO  OOOOO+  ...XOO  OOOOO+  ...",
"O+OO .OOOO+o   XO+OO .OOOO+o   XO+OO .OOOO+o   XO+OO .OOOO+o   XO+OO .OOOO+o   XO+OO .OOOO+o   XO+OO .OOOO+o   XO+OO .OOOO+o   X",
"OO+OO .OOOOo  XOOO+OO .OOOOo  XOOO+OO .OOOOo  XOOO+OO .OOOOo  XOOO+OO .OOOOo  XOOO+OO .OOOOo  XOOO+OO .OOOOo  XOOO+OO .OOOOo  XO",
"OO+OO  ....o XOOOO+OO  ....o XOOOO+OO  ....o XOOOO+OO  ....o XOOOO+OO  ....o XOOOO+OO  ....o XOOOO+OO  ....o XOOOO+OO  ....o XOO",
"OO+oo        XOOOO+oo        XOOOO+oo        XOOOO+oo        XOOOO+oo        XOOOO+oo        XOOOO+oo        XOOOO+oo        XOO",
"O+oo XXXXOO  .OOO+oo XXXXOO  .OOO+oo XXXXOO  .OOO+oo XXXXOO  .OOO+oo XXXXOO  .OOO+oo XXXXOO  .OOO+oo XXXXOO  .OOO+oo XXXXOO  .OO",
"Ooo XXOOO+OO ..OOoo XXOOO+OO ..OOoo XXOOO+OO ..OOoo XXOOO+OO ..OOoo XXOOO+OO ..OOoo XXOOO+OO ..OOoo XXOOO+OO ..OOoo XXOOO+OO ..O",
"oo  XXOOOO+OO ..oo  XXOOOO+OO ..oo  XXOOOO+OO ..oo  XXOOOO+OO ..oo  XXOOOO+OO ..oo  XXOOOO+OO ..oo  XXOOOO+OO ..oo  XXOOOO+OO ..",
"    ooOOOOO+OO .    ooOOOOO+OO .    ooOOOOO+OO .    ooOOOOO+OO .    ooOOOOO+OO .    ooOOOOO+OO .    ooOOOOO+OO .    ooOOOOO+OO .",
"XX  ooOOOOOO+OO XX  ooOOOOOO+OO XX  ooOOOOOO+OO XX  ooOOOOOO+OO XX  ooOOOOOO+OO XX  ooOOOOOO+OO XX  ooOOOOOO+OO XX  ooOOOOOO+OO ",
"O+X ..OOOOOO+oo O+X ..OOOOOO+oo O+X ..OOOOOO+oo O+X ..OOOOOO+oo O+X ..OOOOOO+oo O+X ..OOOOOO+oo O+X ..OOOOOO+oo O+X ..OOOOOO+oo ",
"OO+o ..OOOO+oo OOO+o ..OOOO+oo OOO+o ..OOOO+oo OOO+o ..OOOO+oo OOO+o ..OOOO+oo OOO+o ..OOOO+oo OOO+o ..OOOO+oo OOO+o ..OOOO+oo O",
"OO+o  ...oooo OOOO+o  ...oooo OOOO+o  ...oooo OOOO+o  ...oooo OOOO+o  ...oooo OOOO+o  ...oooo OOOO+o  ...oooo OOOO+o  ...oooo OO",
"O+o  OO+.... OOOO+o  OO+.... OOOO+o  OO+.... OOOO+o  OO+.... OOOO+o  OO+.... OOOO+o  OO+.... OOOO+o  OO+.... OOOO+o  OO+.... OOO",
"Oo  OOOO+   .OOOOo  OOOO+   .OOOOo  OOOO+   .OOOOo  OOOO+   .OOOOo  OOOO+   .OOOOo  OOOO+   .OOOOo  OOOO+   .OOOOo  OOOO+   .OOO",
"o X OOOOO+  .oOOo X OOOOO+  .oOOo X OOOOO+  .oOOo X OOOOO+  .oOOo X OOOOO+  .oOOo X OOOOO+  .oOOo X OOOOO+  .oOOo X OOOOO+  .oOO"
};
